<?xml version="1.0" encoding="UTF-8"?>
<svg width="200px" height="105px" viewBox="0 0 200 105" version="1.1" xmlns="http://www.w3.org/2000/svg" xmlns:xlink="http://www.w3.org/1999/xlink">
    <title>Group 175</title>
    <g id="Page-1" stroke="none" stroke-width="1" fill="none" fill-rule="evenodd">
        <g id="Group-175">
            <polygon id="Fill-1" fill="#F6FEFE" points="78.1235521 43.4015444 86.8069498 43.4015444 86.8069498 34.7220077 78.1235521 34.7220077"></polygon>
            <polygon id="Fill-2" fill="#F6FEFE" points="147.571429 60.7644788 156.250965 60.7644788 156.250965 52.0810811 147.571429 52.0810811"></polygon>
            <polygon id="Fill-3" fill="#F6FEFE" points="190.972973 69.4440154 199.652124 69.4440154 199.652124 60.7644788 190.972973 60.7644788"></polygon>
            <polygon id="Fill-4" fill="#F6FEFE" points="190.972973 60.7644788 199.652124 60.7644788 199.652124 52.0810811 190.972973 52.0810811"></polygon>
            <polygon id="Fill-5" fill="#BECBF5" points="182.293436 78.1235521 190.972973 78.1235521 190.972973 69.4440154 182.293436 69.4440154"></polygon>
            <polygon id="Fill-6" fill="#D1FAFA" points="182.293436 69.4440154 190.972973 69.4440154 190.972973 60.7644788 182.293436 60.7644788"></polygon>
            <polygon id="Fill-7" fill="#D1FAFA" points="182.293436 60.7644788 190.972973 60.7644788 190.972973 52.0810811 182.293436 52.0810811"></polygon>
            <polygon id="Fill-8" fill="#F6FEFE" points="182.293436 52.0810811 190.972973 52.0810811 190.972973 43.4015444 182.293436 43.4015444"></polygon>
            <polygon id="Fill-9" fill="#BECBF5" points="173.6139 86.8030888 182.293436 86.8030888 182.293436 78.1235521 173.6139 78.1235521"></polygon>
            <polygon id="Fill-10" fill="#BECBF5" points="173.6139 78.1235521 182.293436 78.1235521 182.293436 69.4440154 173.6139 69.4440154"></polygon>
            <polygon id="Fill-11" fill="#D1FAFA" points="173.6139 69.4440154 182.293436 69.4440154 182.293436 60.7644788 173.6139 60.7644788"></polygon>
            <polygon id="Fill-12" fill="#D1FAFA" points="173.6139 60.7644788 182.293436 60.7644788 182.293436 52.0810811 173.6139 52.0810811"></polygon>
            <polygon id="Fill-13" fill="#F6FEFE" points="173.6139 52.0810811 182.293436 52.0810811 182.293436 43.4015444 173.6139 43.4015444"></polygon>
            <polygon id="Fill-14" fill="#BECBF5" points="164.930502 86.8030888 173.6139 86.8030888 173.6139 78.1235521 164.930502 78.1235521"></polygon>
            <polygon id="Fill-15" fill="#D1FAFA" points="164.930502 78.1235521 173.6139 78.1235521 173.6139 69.4440154 164.930502 69.4440154"></polygon>
            <polygon id="Fill-16" fill="#D1FAFA" points="164.930502 69.4440154 173.6139 69.4440154 173.6139 60.7644788 164.930502 60.7644788"></polygon>
            <polygon id="Fill-17" fill="#D1FAFA" points="164.930502 60.7644788 173.6139 60.7644788 173.6139 52.0810811 164.930502 52.0810811"></polygon>
            <polygon id="Fill-18" fill="#F6FEFE" points="164.930502 52.0810811 173.6139 52.0810811 173.6139 43.4015444 164.930502 43.4015444"></polygon>
            <polygon id="Fill-19" fill="#F6FEFE" points="164.930502 43.4015444 173.6139 43.4015444 173.6139 34.7220077 164.930502 34.7220077"></polygon>
            <polygon id="Fill-20" fill="#BECBF5" points="156.250965 86.8030888 164.930502 86.8030888 164.930502 78.1235521 156.250965 78.1235521"></polygon>
            <polygon id="Fill-21" fill="#BECBF5" points="156.250965 78.1235521 164.930502 78.1235521 164.930502 69.4440154 156.250965 69.4440154"></polygon>
            <polygon id="Fill-22" fill="#D1FAFA" points="156.250965 69.4440154 164.930502 69.4440154 164.930502 60.7644788 156.250965 60.7644788"></polygon>
            <polygon id="Fill-23" fill="#D1FAFA" points="156.250965 60.7644788 164.930502 60.7644788 164.930502 52.0810811 156.250965 52.0810811"></polygon>
            <polygon id="Fill-24" fill="#D1FAFA" points="156.250965 52.0810811 164.930502 52.0810811 164.930502 43.4015444 156.250965 43.4015444"></polygon>
            <polygon id="Fill-25" fill="#F6FEFE" points="156.250965 43.4015444 164.930502 43.4015444 164.930502 34.7220077 156.250965 34.7220077"></polygon>
            <polygon id="Fill-26" fill="#F6FEFE" points="156.250965 34.7220077 164.930502 34.7220077 164.930502 26.03861 156.250965 26.03861"></polygon>
            <polygon id="Fill-27" fill="#BECBF5" points="147.571429 86.8030888 156.250965 86.8030888 156.250965 78.1235521 147.571429 78.1235521"></polygon>
            <polygon id="Fill-28" fill="#BECBF5" points="147.571429 78.1235521 156.250965 78.1235521 156.250965 69.4440154 147.571429 69.4440154"></polygon>
            <polygon id="Fill-29" fill="#D1FAFA" points="147.571429 69.4440154 156.250965 69.4440154 156.250965 60.7644788 147.571429 60.7644788"></polygon>
            <polygon id="Fill-30" fill="#D1FAFA" points="147.571429 52.0810811 156.250965 52.0810811 156.250965 43.4015444 147.571429 43.4015444"></polygon>
            <polygon id="Fill-31" fill="#D1FAFA" points="147.571429 43.4015444 156.250965 43.4015444 156.250965 34.7220077 147.571429 34.7220077"></polygon>
            <polygon id="Fill-32" fill="#F6FEFE" points="147.571429 34.7220077 156.250965 34.7220077 156.250965 26.03861 147.571429 26.03861"></polygon>
            <polygon id="Fill-33" fill="#BECBF5" points="138.888031 95.4864865 147.571429 95.4864865 147.571429 86.8030888 138.888031 86.8030888"></polygon>
            <polygon id="Fill-34" fill="#BECBF5" points="138.888031 86.8030888 147.571429 86.8030888 147.571429 78.1235521 138.888031 78.1235521"></polygon>
            <polygon id="Fill-35" fill="#BECBF5" points="138.888031 78.1235521 147.571429 78.1235521 147.571429 69.4440154 138.888031 69.4440154"></polygon>
            <polygon id="Fill-36" fill="#D1FAFA" points="138.888031 69.4440154 147.571429 69.4440154 147.571429 60.7644788 138.888031 60.7644788"></polygon>
            <polygon id="Fill-37" fill="#D1FAFA" points="138.888031 60.7644788 147.571429 60.7644788 147.571429 52.0810811 138.888031 52.0810811"></polygon>
            <polygon id="Fill-38" fill="#D1FAFA" points="138.888031 52.0810811 147.571429 52.0810811 147.571429 43.4015444 138.888031 43.4015444"></polygon>
            <polygon id="Fill-39" fill="#D1FAFA" points="138.888031 43.4015444 147.571429 43.4015444 147.571429 34.7220077 138.888031 34.7220077"></polygon>
            <polygon id="Fill-40" fill="#F6FEFE" points="138.888031 34.7220077 147.571429 34.7220077 147.571429 26.03861 138.888031 26.03861"></polygon>
            <polygon id="Fill-41" fill="#BECBF5" points="130.208494 86.8030888 138.888031 86.8030888 138.888031 78.1235521 130.208494 78.1235521"></polygon>
            <polygon id="Fill-42" fill="#BECBF5" points="130.208494 78.1235521 138.888031 78.1235521 138.888031 69.4440154 130.208494 69.4440154"></polygon>
            <polygon id="Fill-43" fill="#BECBF5" points="130.208494 69.4440154 138.888031 69.4440154 138.888031 60.7644788 130.208494 60.7644788"></polygon>
            <polygon id="Fill-44" fill="#D1FAFA" points="130.208494 60.7644788 138.888031 60.7644788 138.888031 52.0810811 130.208494 52.0810811"></polygon>
            <polygon id="Fill-45" fill="#D1FAFA" points="130.208494 52.0810811 138.888031 52.0810811 138.888031 43.4015444 130.208494 43.4015444"></polygon>
            <polygon id="Fill-46" fill="#D1FAFA" points="130.208494 43.4015444 138.888031 43.4015444 138.888031 34.7220077 130.208494 34.7220077"></polygon>
            <polygon id="Fill-47" fill="#F6FEFE" points="130.208494 34.7220077 138.888031 34.7220077 138.888031 26.03861 130.208494 26.03861"></polygon>
            <polygon id="Fill-48" fill="#BECBF5" points="121.528958 86.8030888 130.208494 86.8030888 130.208494 78.1235521 121.528958 78.1235521"></polygon>
            <polygon id="Fill-49" fill="#D1FAFA" points="121.528958 78.1235521 130.208494 78.1235521 130.208494 69.4440154 121.528958 69.4440154"></polygon>
            <polygon id="Fill-50" fill="#BECBF5" points="121.528958 69.4440154 130.208494 69.4440154 130.208494 60.7644788 121.528958 60.7644788"></polygon>
            <polygon id="Fill-51" fill="#D1FAFA" points="121.528958 60.7644788 130.208494 60.7644788 130.208494 52.0810811 121.528958 52.0810811"></polygon>
            <polygon id="Fill-52" fill="#D1FAFA" points="121.528958 52.0810811 130.208494 52.0810811 130.208494 43.4015444 121.528958 43.4015444"></polygon>
            <polygon id="Fill-53" fill="#D1FAFA" points="121.528958 43.4015444 130.208494 43.4015444 130.208494 34.7220077 121.528958 34.7220077"></polygon>
            <polygon id="Fill-54" fill="#F6FEFE" points="121.528958 34.7220077 130.208494 34.7220077 130.208494 26.03861 121.528958 26.03861"></polygon>
            <polygon id="Fill-55" fill="#F6FEFE" points="121.528958 26.03861 130.208494 26.03861 130.208494 17.3590734 121.528958 17.3590734"></polygon>
            <polygon id="Fill-56" fill="#BECBF5" points="112.849421 95.4864865 121.528958 95.4864865 121.528958 86.8030888 112.849421 86.8030888"></polygon>
            <polygon id="Fill-57" fill="#D1FAFA" points="112.849421 86.8030888 121.528958 86.8030888 121.528958 78.1235521 112.849421 78.1235521"></polygon>
            <polygon id="Fill-58" fill="#D1FAFA" points="112.849421 78.1235521 121.528958 78.1235521 121.528958 69.4440154 112.849421 69.4440154"></polygon>
            <polygon id="Fill-59" fill="#D1FAFA" points="112.849421 69.4440154 121.528958 69.4440154 121.528958 60.7644788 112.849421 60.7644788"></polygon>
            <polygon id="Fill-60" fill="#BECBF5" points="112.849421 60.7644788 121.528958 60.7644788 121.528958 52.0810811 112.849421 52.0810811"></polygon>
            <polygon id="Fill-61" fill="#D1FAFA" points="112.849421 52.0810811 121.528958 52.0810811 121.528958 43.4015444 112.849421 43.4015444"></polygon>
            <polygon id="Fill-62" fill="#D1FAFA" points="112.849421 43.4015444 121.528958 43.4015444 121.528958 34.7220077 112.849421 34.7220077"></polygon>
            <polygon id="Fill-63" fill="#D1FAFA" points="112.849421 34.7220077 121.528958 34.7220077 121.528958 26.03861 112.849421 26.03861"></polygon>
            <polygon id="Fill-64" fill="#F6FEFE" points="112.849421 26.03861 121.528958 26.03861 121.528958 17.3590734 112.849421 17.3590734"></polygon>
            <polygon id="Fill-65" fill="#F6FEFE" points="112.849421 17.3590734 121.528958 17.3590734 121.528958 8.67953668 112.849421 8.67953668"></polygon>
            <polygon id="Fill-66" fill="#BECBF5" points="104.166023 95.4864865 112.849421 95.4864865 112.849421 86.8030888 104.166023 86.8030888"></polygon>
            <polygon id="Fill-67" fill="#D1FAFA" points="104.166023 86.8030888 112.849421 86.8030888 112.849421 78.1235521 104.166023 78.1235521"></polygon>
            <polygon id="Fill-68" fill="#D1FAFA" points="104.166023 78.1235521 112.849421 78.1235521 112.849421 69.4440154 104.166023 69.4440154"></polygon>
            <polygon id="Fill-69" fill="#D1FAFA" points="104.166023 69.4440154 112.849421 69.4440154 112.849421 60.7644788 104.166023 60.7644788"></polygon>
            <polygon id="Fill-70" fill="#D1FAFA" points="104.166023 60.7644788 112.849421 60.7644788 112.849421 52.0810811 104.166023 52.0810811"></polygon>
            <polygon id="Fill-71" fill="#D1FAFA" points="104.166023 52.0810811 112.849421 52.0810811 112.849421 43.4015444 104.166023 43.4015444"></polygon>
            <polygon id="Fill-72" fill="#D1FAFA" points="104.166023 43.4015444 112.849421 43.4015444 112.849421 34.7220077 104.166023 34.7220077"></polygon>
            <polygon id="Fill-73" fill="#D1FAFA" points="104.166023 34.7220077 112.849421 34.7220077 112.849421 26.03861 104.166023 26.03861"></polygon>
            <polygon id="Fill-74" fill="#F6FEFE" points="104.166023 26.03861 112.849421 26.03861 112.849421 17.3590734 104.166023 17.3590734"></polygon>
            <polygon id="Fill-75" fill="#F6FEFE" points="104.166023 17.3590734 112.849421 17.3590734 112.849421 8.67953668 104.166023 8.67953668"></polygon>
            <polygon id="Fill-76" fill="#F6FEFE" points="104.166023 8.67953668 112.849035 8.67953668 112.849035 0 104.166023 0"></polygon>
            <polygon id="Fill-77" fill="#BECBF5" points="95.4864865 104.166023 104.166023 104.166023 104.166023 95.4864865 95.4864865 95.4864865"></polygon>
            <polygon id="Fill-78" fill="#BECBF5" points="95.4864865 95.4864865 104.166023 95.4864865 104.166023 86.8030888 95.4864865 86.8030888"></polygon>
            <polygon id="Fill-79" fill="#BECBF5" points="95.4864865 86.8030888 104.166023 86.8030888 104.166023 78.1235521 95.4864865 78.1235521"></polygon>
            <polygon id="Fill-80" fill="#D1FAFA" points="95.4864865 78.1235521 104.166023 78.1235521 104.166023 69.4440154 95.4864865 69.4440154"></polygon>
            <polygon id="Fill-81" fill="#D1FAFA" points="95.4864865 69.4440154 104.166023 69.4440154 104.166023 60.7644788 95.4864865 60.7644788"></polygon>
            <polygon id="Fill-82" fill="#D1FAFA" points="95.4864865 60.7644788 104.166023 60.7644788 104.166023 52.0810811 95.4864865 52.0810811"></polygon>
            <polygon id="Fill-83" fill="#D1FAFA" points="95.4864865 52.0810811 104.166023 52.0810811 104.166023 43.4015444 95.4864865 43.4015444"></polygon>
            <polygon id="Fill-84" fill="#D1FAFA" points="95.4864865 43.4015444 104.166023 43.4015444 104.166023 34.7220077 95.4864865 34.7220077"></polygon>
            <polygon id="Fill-85" fill="#D1FAFA" points="95.4864865 34.7220077 104.166023 34.7220077 104.166023 26.03861 95.4864865 26.03861"></polygon>
            <polygon id="Fill-86" fill="#D1FAFA" points="95.4864865 26.03861 104.166023 26.03861 104.166023 17.3590734 95.4864865 17.3590734"></polygon>
            <polygon id="Fill-87" fill="#F6FEFE" points="95.4864865 17.3590734 104.166023 17.3590734 104.166023 8.67953668 95.4864865 8.67953668"></polygon>
            <polygon id="Fill-88" fill="#F6FEFE" points="95.4864865 8.67953668 104.166023 8.67953668 104.166023 0 95.4864865 0"></polygon>
            <polygon id="Fill-89" fill="#BECBF5" points="86.8069498 104.166023 95.4864865 104.166023 95.4864865 95.4864865 86.8069498 95.4864865"></polygon>
            <polygon id="Fill-90" fill="#BECBF5" points="86.8069498 95.4864865 95.4864865 95.4864865 95.4864865 86.8030888 86.8069498 86.8030888"></polygon>
            <polygon id="Fill-91" fill="#BECBF5" points="86.8069498 86.8030888 95.4864865 86.8030888 95.4864865 78.1235521 86.8069498 78.1235521"></polygon>
            <polygon id="Fill-92" fill="#D1FAFA" points="86.8069498 78.1235521 95.4864865 78.1235521 95.4864865 69.4440154 86.8069498 69.4440154"></polygon>
            <polygon id="Fill-93" fill="#D1FAFA" points="86.8069498 69.4440154 95.4864865 69.4440154 95.4864865 60.7644788 86.8069498 60.7644788"></polygon>
            <polygon id="Fill-94" fill="#D1FAFA" points="86.8069498 60.7644788 95.4864865 60.7644788 95.4864865 52.0810811 86.8069498 52.0810811"></polygon>
            <polygon id="Fill-95" fill="#D1FAFA" points="86.8069498 52.0810811 95.4864865 52.0810811 95.4864865 43.4015444 86.8069498 43.4015444"></polygon>
            <polygon id="Fill-96" fill="#D1FAFA" points="86.8069498 43.4015444 95.4864865 43.4015444 95.4864865 34.7220077 86.8069498 34.7220077"></polygon>
            <polygon id="Fill-97" fill="#D1FAFA" points="86.8069498 34.7220077 95.4864865 34.7220077 95.4864865 26.03861 86.8069498 26.03861"></polygon>
            <polygon id="Fill-98" fill="#D1FAFA" points="86.8069498 26.03861 95.4864865 26.03861 95.4864865 17.3590734 86.8069498 17.3590734"></polygon>
            <polygon id="Fill-99" fill="#F6FEFE" points="86.8069498 17.3590734 95.4864865 17.3590734 95.4864865 8.67953668 86.8069498 8.67953668"></polygon>
            <polygon id="Fill-100" fill="#F6FEFE" points="86.8069498 8.67953668 95.4864865 8.67953668 95.4864865 0 86.8069498 0"></polygon>
            <polygon id="Fill-101" fill="#BECBF5" points="78.1235521 95.4864865 86.8069498 95.4864865 86.8069498 86.8030888 78.1235521 86.8030888"></polygon>
            <polygon id="Fill-102" fill="#BECBF5" points="78.1235521 86.8030888 86.8069498 86.8030888 86.8069498 78.1235521 78.1235521 78.1235521"></polygon>
            <polygon id="Fill-103" fill="#D1FAFA" points="78.1235521 78.1235521 86.8069498 78.1235521 86.8069498 69.4440154 78.1235521 69.4440154"></polygon>
            <polygon id="Fill-104" fill="#D1FAFA" points="78.1235521 69.4440154 86.8069498 69.4440154 86.8069498 60.7644788 78.1235521 60.7644788"></polygon>
            <polygon id="Fill-105" fill="#D1FAFA" points="78.1235521 60.7644788 86.8069498 60.7644788 86.8069498 52.0810811 78.1235521 52.0810811"></polygon>
            <polygon id="Fill-106" fill="#D1FAFA" points="78.1235521 52.0810811 86.8069498 52.0810811 86.8069498 43.4015444 78.1235521 43.4015444"></polygon>
            <polygon id="Fill-107" fill="#D1FAFA" points="78.1235521 34.7220077 86.8069498 34.7220077 86.8069498 26.03861 78.1235521 26.03861"></polygon>
            <polygon id="Fill-108" fill="#F6FEFE" points="78.1235521 26.03861 86.8069498 26.03861 86.8069498 17.3590734 78.1235521 17.3590734"></polygon>
            <polygon id="Fill-109" fill="#F6FEFE" points="78.1235521 17.3590734 86.8069498 17.3590734 86.8069498 8.67953668 78.1235521 8.67953668"></polygon>
            <polygon id="Fill-110" fill="#F6FEFE" points="78.1235521 8.67953668 86.8069498 8.67953668 86.8069498 0 78.1235521 0"></polygon>
            <polygon id="Fill-111" fill="#BECBF5" points="69.4440154 86.8030888 78.1235521 86.8030888 78.1235521 78.1235521 69.4440154 78.1235521"></polygon>
            <polygon id="Fill-112" fill="#D1FAFA" points="69.4440154 78.1235521 78.1235521 78.1235521 78.1235521 69.4440154 69.4440154 69.4440154"></polygon>
            <polygon id="Fill-113" fill="#D1FAFA" points="69.4440154 69.4440154 78.1235521 69.4440154 78.1235521 60.7644788 69.4440154 60.7644788"></polygon>
            <polygon id="Fill-114" fill="#D1FAFA" points="69.4440154 60.7644788 78.1235521 60.7644788 78.1235521 52.0810811 69.4440154 52.0810811"></polygon>
            <polygon id="Fill-115" fill="#D1FAFA" points="69.4440154 52.0810811 78.1235521 52.0810811 78.1235521 43.4015444 69.4440154 43.4015444"></polygon>
            <polygon id="Fill-116" fill="#F6FEFE" points="69.4440154 43.4015444 78.1235521 43.4015444 78.1235521 34.7220077 69.4440154 34.7220077"></polygon>
            <polygon id="Fill-117" fill="#D1FAFA" points="69.4440154 34.7220077 78.1235521 34.7220077 78.1235521 26.03861 69.4440154 26.03861"></polygon>
            <polygon id="Fill-118" fill="#F6FEFE" points="69.4440154 26.03861 78.1235521 26.03861 78.1235521 17.3590734 69.4440154 17.3590734"></polygon>
            <polygon id="Fill-119" fill="#F6FEFE" points="69.4440154 17.3590734 78.1235521 17.3590734 78.1235521 8.67953668 69.4440154 8.67953668"></polygon>
            <polygon id="Fill-120" fill="#F6FEFE" points="69.4440154 8.67953668 78.1235521 8.67953668 78.1235521 0 69.4440154 0"></polygon>
            <polygon id="Fill-121" fill="#BECBF5" points="60.7644788 95.4864865 69.4440154 95.4864865 69.4440154 86.8030888 60.7644788 86.8030888"></polygon>
            <polygon id="Fill-122" fill="#BECBF5" points="60.7644788 86.8030888 69.4440154 86.8030888 69.4440154 78.1235521 60.7644788 78.1235521"></polygon>
            <polygon id="Fill-123" fill="#D1FAFA" points="60.7644788 78.1235521 69.4440154 78.1235521 69.4440154 69.4440154 60.7644788 69.4440154"></polygon>
            <polygon id="Fill-124" fill="#D1FAFA" points="60.7644788 69.4440154 69.4440154 69.4440154 69.4440154 60.7644788 60.7644788 60.7644788"></polygon>
            <polygon id="Fill-125" fill="#D1FAFA" points="60.7644788 60.7644788 69.4440154 60.7644788 69.4440154 52.0810811 60.7644788 52.0810811"></polygon>
            <polygon id="Fill-126" fill="#D1FAFA" points="60.7644788 52.0810811 69.4440154 52.0810811 69.4440154 43.4015444 60.7644788 43.4015444"></polygon>
            <polygon id="Fill-127" fill="#F6FEFE" points="60.7644788 43.4015444 69.4440154 43.4015444 69.4440154 34.7220077 60.7644788 34.7220077"></polygon>
            <polygon id="Fill-128" fill="#F6FEFE" points="60.7644788 34.7220077 69.4440154 34.7220077 69.4440154 26.03861 60.7644788 26.03861"></polygon>
            <polygon id="Fill-129" fill="#F6FEFE" points="60.7644788 26.03861 69.4440154 26.03861 69.4440154 17.3590734 60.7644788 17.3590734"></polygon>
            <polygon id="Fill-130" fill="#F6FEFE" points="60.7644788 17.3590734 69.4440154 17.3590734 69.4440154 8.67953668 60.7644788 8.67953668"></polygon>
            <polygon id="Fill-131" fill="#F6FEFE" points="60.7644788 8.67953668 69.4436293 8.67953668 69.4436293 0 60.7644788 0"></polygon>
            <polygon id="Fill-132" fill="#BECBF5" points="52.0849421 95.4864865 60.7644788 95.4864865 60.7644788 86.8030888 52.0849421 86.8030888"></polygon>
            <polygon id="Fill-133" fill="#BECBF5" points="52.0849421 86.8030888 60.7644788 86.8030888 60.7644788 78.1235521 52.0849421 78.1235521"></polygon>
            <polygon id="Fill-134" fill="#BECBF5" points="52.0849421 78.1235521 60.7644788 78.1235521 60.7644788 69.4440154 52.0849421 69.4440154"></polygon>
            <polygon id="Fill-135" fill="#D1FAFA" points="52.0849421 69.4440154 60.7644788 69.4440154 60.7644788 60.7644788 52.0849421 60.7644788"></polygon>
            <polygon id="Fill-136" fill="#D1FAFA" points="52.0849421 60.7644788 60.7644788 60.7644788 60.7644788 52.0810811 52.0849421 52.0810811"></polygon>
            <polygon id="Fill-137" fill="#D1FAFA" points="52.0849421 52.0810811 60.7644788 52.0810811 60.7644788 43.4015444 52.0849421 43.4015444"></polygon>
            <polygon id="Fill-138" fill="#F6FEFE" points="52.0849421 43.4015444 60.7644788 43.4015444 60.7644788 34.7220077 52.0849421 34.7220077"></polygon>
            <polygon id="Fill-139" fill="#F6FEFE" points="52.0849421 34.7220077 60.7644788 34.7220077 60.7644788 26.03861 52.0849421 26.03861"></polygon>
            <polygon id="Fill-140" fill="#F6FEFE" points="52.0849421 26.03861 60.7644788 26.03861 60.7644788 17.3590734 52.0849421 17.3590734"></polygon>
            <polygon id="Fill-141" fill="#F6FEFE" points="52.0849421 17.3590734 60.7644788 17.3590734 60.7644788 8.67953668 52.0849421 8.67953668"></polygon>
            <polygon id="Fill-142" fill="#BECBF5" points="43.4015444 95.4864865 52.0849421 95.4864865 52.0849421 86.8030888 43.4015444 86.8030888"></polygon>
            <polygon id="Fill-143" fill="#D1FAFA" points="43.4015444 86.8030888 52.0849421 86.8030888 52.0849421 78.1235521 43.4015444 78.1235521"></polygon>
            <polygon id="Fill-144" fill="#D1FAFA" points="43.4015444 78.1235521 52.0849421 78.1235521 52.0849421 69.4440154 43.4015444 69.4440154"></polygon>
            <polygon id="Fill-145" fill="#D1FAFA" points="43.4015444 69.4440154 52.0849421 69.4440154 52.0849421 60.7644788 43.4015444 60.7644788"></polygon>
            <polygon id="Fill-146" fill="#D1FAFA" points="43.4015444 60.7644788 52.0849421 60.7644788 52.0849421 52.0810811 43.4015444 52.0810811"></polygon>
            <polygon id="Fill-147" fill="#D1FAFA" points="43.4015444 52.0810811 52.0849421 52.0810811 52.0849421 43.4015444 43.4015444 43.4015444"></polygon>
            <polygon id="Fill-148" fill="#F6FEFE" points="43.4015444 43.4015444 52.0849421 43.4015444 52.0849421 34.7220077 43.4015444 34.7220077"></polygon>
            <polygon id="Fill-149" fill="#BECBF5" points="34.7220077 95.4864865 43.4015444 95.4864865 43.4015444 86.8030888 34.7220077 86.8030888"></polygon>
            <polygon id="Fill-150" fill="#D1FAFA" points="34.7220077 86.8030888 43.4015444 86.8030888 43.4015444 78.1235521 34.7220077 78.1235521"></polygon>
            <polygon id="Fill-151" fill="#D1FAFA" points="34.7220077 78.1235521 43.4015444 78.1235521 43.4015444 69.4440154 34.7220077 69.4440154"></polygon>
            <polygon id="Fill-152" fill="#D1FAFA" points="34.7220077 69.4440154 43.4015444 69.4440154 43.4015444 60.7644788 34.7220077 60.7644788"></polygon>
            <polygon id="Fill-153" fill="#D1FAFA" points="34.7220077 60.7644788 43.4015444 60.7644788 43.4015444 52.0810811 34.7220077 52.0810811"></polygon>
            <polygon id="Fill-154" fill="#D1FAFA" points="34.7220077 52.0810811 43.4015444 52.0810811 43.4015444 43.4015444 34.7220077 43.4015444"></polygon>
            <polygon id="Fill-155" fill="#F6FEFE" points="34.7220077 43.4015444 43.4015444 43.4015444 43.4015444 34.7220077 34.7220077 34.7220077"></polygon>
            <polygon id="Fill-156" fill="#BECBF5" points="26.042471 95.4864865 34.7220077 95.4864865 34.7220077 86.8030888 26.042471 86.8030888"></polygon>
            <polygon id="Fill-157" fill="#BECBF5" points="26.042471 86.8030888 34.7220077 86.8030888 34.7220077 78.1235521 26.042471 78.1235521"></polygon>
            <polygon id="Fill-158" fill="#D1FAFA" points="26.042471 78.1235521 34.7220077 78.1235521 34.7220077 69.4440154 26.042471 69.4440154"></polygon>
            <polygon id="Fill-159" fill="#D1FAFA" points="26.042471 69.4440154 34.7220077 69.4440154 34.7220077 60.7644788 26.042471 60.7644788"></polygon>
            <polygon id="Fill-160" fill="#D1FAFA" points="26.042471 60.7644788 34.7220077 60.7644788 34.7220077 52.0810811 26.042471 52.0810811"></polygon>
            <polygon id="Fill-161" fill="#D1FAFA" points="26.042471 52.0810811 34.7220077 52.0810811 34.7220077 43.4015444 26.042471 43.4015444"></polygon>
            <polygon id="Fill-162" fill="#F6FEFE" points="26.042471 43.4015444 34.7220077 43.4015444 34.7220077 34.7220077 26.042471 34.7220077"></polygon>
            <polygon id="Fill-163" fill="#BECBF5" points="17.3590734 86.8030888 26.042471 86.8030888 26.042471 78.1235521 17.3590734 78.1235521"></polygon>
            <polygon id="Fill-164" fill="#D1FAFA" points="17.3590734 78.1235521 26.042471 78.1235521 26.042471 69.4440154 17.3590734 69.4440154"></polygon>
            <polygon id="Fill-165" fill="#D1FAFA" points="17.3590734 69.4440154 26.042471 69.4440154 26.042471 60.7644788 17.3590734 60.7644788"></polygon>
            <polygon id="Fill-166" fill="#D1FAFA" points="17.3590734 60.7644788 26.042471 60.7644788 26.042471 52.0810811 17.3590734 52.0810811"></polygon>
            <polygon id="Fill-167" fill="#D1FAFA" points="17.3590734 52.0810811 26.042471 52.0810811 26.042471 43.4015444 17.3590734 43.4015444"></polygon>
            <polygon id="Fill-168" fill="#F6FEFE" points="17.3590734 43.4015444 26.042471 43.4015444 26.042471 34.7220077 17.3590734 34.7220077"></polygon>
            <polygon id="Fill-169" fill="#BECBF5" points="8.67953668 78.1235521 17.3590734 78.1235521 17.3590734 69.4440154 8.67953668 69.4440154"></polygon>
            <polygon id="Fill-170" fill="#D1FAFA" points="8.67953668 69.4440154 17.3590734 69.4440154 17.3590734 60.7644788 8.67953668 60.7644788"></polygon>
            <polygon id="Fill-171" fill="#D1FAFA" points="8.67953668 60.7644788 17.3590734 60.7644788 17.3590734 52.0810811 8.67953668 52.0810811"></polygon>
            <polygon id="Fill-172" fill="#F6FEFE" points="8.67953668 52.0810811 17.3590734 52.0810811 17.3590734 43.4015444 8.67953668 43.4015444"></polygon>
            <polygon id="Fill-173" fill="#F6FEFE" points="0 69.4440154 8.67953668 69.4440154 8.67953668 60.7644788 0 60.7644788"></polygon>
            <polygon id="Fill-174" fill="#F6FEFE" points="0 60.7644788 8.67953668 60.7644788 8.67953668 52.0810811 0 52.0810811"></polygon>
        </g>
    </g>
</svg>