<?xml version="1.0" encoding="UTF-8"?>
<svg width="260px" height="109px" viewBox="0 0 260 109" version="1.1" xmlns="http://www.w3.org/2000/svg" xmlns:xlink="http://www.w3.org/1999/xlink">
    <title>Group 343</title>
    <g id="Page-1" stroke="none" stroke-width="1" fill="none" fill-rule="evenodd">
        <g id="Group-343">
            <polygon id="Fill-1" fill="#D1FAFA" points="252.585185 93.8150617 259.800988 93.8150617 259.800988 86.5995802 252.585185 86.5995802"></polygon>
            <polygon id="Fill-2" fill="#F6FEFE" points="252.585185 86.5992593 259.800988 86.5992593 259.800988 79.3834568 252.585185 79.3834568"></polygon>
            <polygon id="Fill-3" fill="#BECBF5" points="245.366173 93.8150617 252.585185 93.8150617 252.585185 86.5992593 245.366173 86.5992593"></polygon>
            <polygon id="Fill-4" fill="#D1FAFA" points="245.366173 86.5992593 252.585185 86.5992593 252.585185 79.3834568 245.366173 79.3834568"></polygon>
            <polygon id="Fill-5" fill="#BECBF5" points="238.15037 93.8150617 245.366173 93.8150617 245.366173 86.5992593 238.15037 86.5992593"></polygon>
            <polygon id="Fill-6" fill="#D1FAFA" points="238.15037 86.5992593 245.366173 86.5992593 245.366173 79.3834568 238.15037 79.3834568"></polygon>
            <polygon id="Fill-7" fill="#F6FEFE" points="238.15037 79.3834568 245.366173 79.3834568 245.366173 72.1676543 238.15037 72.1676543"></polygon>
            <polygon id="Fill-8" fill="#BECBF5" points="230.934568 101.034074 238.15037 101.034074 238.15037 93.8150617 230.934568 93.8150617"></polygon>
            <polygon id="Fill-9" fill="#D1FAFA" points="230.934568 93.8150617 238.15037 93.8150617 238.15037 86.5992593 230.934568 86.5992593"></polygon>
            <polygon id="Fill-10" fill="#D1FAFA" points="230.934568 86.5992593 238.15037 86.5992593 238.15037 79.3834568 230.934568 79.3834568"></polygon>
            <polygon id="Fill-11" fill="#D1FAFA" points="230.934568 79.3834568 238.15037 79.3834568 238.15037 72.1676543 230.934568 72.1676543"></polygon>
            <polygon id="Fill-12" fill="#F6FEFE" points="230.934568 72.1676543 238.15037 72.1676543 238.15037 64.948642 230.934568 64.948642"></polygon>
            <polygon id="Fill-13" fill="#BECBF5" points="223.718765 101.034074 230.934568 101.034074 230.934568 93.8150617 223.718765 93.8150617"></polygon>
            <polygon id="Fill-14" fill="#D1FAFA" points="223.718765 93.8150617 230.934568 93.8150617 230.934568 86.5992593 223.718765 86.5992593"></polygon>
            <polygon id="Fill-15" fill="#D1FAFA" points="223.718765 86.5992593 230.934568 86.5992593 230.934568 79.3834568 223.718765 79.3834568"></polygon>
            <polygon id="Fill-16" fill="#D1FAFA" points="223.718765 79.3834568 230.934568 79.3834568 230.934568 72.1676543 223.718765 72.1676543"></polygon>
            <polygon id="Fill-17" fill="#F6FEFE" points="223.718765 72.1676543 230.934568 72.1676543 230.934568 64.948642 223.718765 64.948642"></polygon>
            <polygon id="Fill-18" fill="#BECBF5" points="216.499753 101.034074 223.718765 101.034074 223.718765 93.8150617 216.499753 93.8150617"></polygon>
            <polygon id="Fill-19" fill="#D1FAFA" points="216.499753 93.8150617 223.718765 93.8150617 223.718765 86.5992593 216.499753 86.5992593"></polygon>
            <polygon id="Fill-20" fill="#D1FAFA" points="216.499753 86.5992593 223.718765 86.5992593 223.718765 79.3834568 216.499753 79.3834568"></polygon>
            <polygon id="Fill-21" fill="#D1FAFA" points="216.499753 79.3834568 223.718765 79.3834568 223.718765 72.1676543 216.499753 72.1676543"></polygon>
            <polygon id="Fill-22" fill="#D1FAFA" points="216.499753 72.1676543 223.718765 72.1676543 223.718765 64.948642 216.499753 64.948642"></polygon>
            <polygon id="Fill-23" fill="#F6FEFE" points="216.499753 64.948642 223.718765 64.948642 223.718765 57.7328395 216.499753 57.7328395"></polygon>
            <polygon id="Fill-24" fill="#BECBF5" points="209.283951 93.8150617 216.499753 93.8150617 216.499753 86.5992593 209.283951 86.5992593"></polygon>
            <polygon id="Fill-25" fill="#D1FAFA" points="209.283951 86.5992593 216.499753 86.5992593 216.499753 79.3834568 209.283951 79.3834568"></polygon>
            <polygon id="Fill-26" fill="#D1FAFA" points="209.283951 79.3834568 216.499753 79.3834568 216.499753 72.1676543 209.283951 72.1676543"></polygon>
            <polygon id="Fill-27" fill="#D1FAFA" points="209.283951 72.1676543 216.499753 72.1676543 216.499753 64.948642 209.283951 64.948642"></polygon>
            <polygon id="Fill-28" fill="#F6FEFE" points="209.283951 64.948642 216.499753 64.948642 216.499753 57.7328395 209.283951 57.7328395"></polygon>
            <polygon id="Fill-29" fill="#F6FEFE" points="209.283951 57.7328395 216.499753 57.7328395 216.499753 50.517037 209.283951 50.517037"></polygon>
            <polygon id="Fill-30" fill="#F6FEFE" points="209.283951 50.517037 216.499753 50.517037 216.499753 43.3012346 209.283951 43.3012346"></polygon>
            <polygon id="Fill-31" fill="#BECBF5" points="202.068148 101.034074 209.283951 101.034074 209.283951 93.8150617 202.068148 93.8150617"></polygon>
            <polygon id="Fill-32" fill="#BECBF5" points="202.068148 93.8150617 209.283951 93.8150617 209.283951 86.5992593 202.068148 86.5992593"></polygon>
            <polygon id="Fill-33" fill="#D1FAFA" points="202.068148 86.5992593 209.283951 86.5992593 209.283951 79.3834568 202.068148 79.3834568"></polygon>
            <polygon id="Fill-34" fill="#D1FAFA" points="202.068148 79.3834568 209.283951 79.3834568 209.283951 72.1676543 202.068148 72.1676543"></polygon>
            <polygon id="Fill-35" fill="#D1FAFA" points="202.068148 72.1676543 209.283951 72.1676543 209.283951 64.948642 202.068148 64.948642"></polygon>
            <polygon id="Fill-36" fill="#F6FEFE" points="202.068148 64.948642 209.283951 64.948642 209.283951 57.7328395 202.068148 57.7328395"></polygon>
            <polygon id="Fill-37" fill="#F6FEFE" points="202.068148 57.7328395 209.283951 57.7328395 209.283951 50.517037 202.068148 50.517037"></polygon>
            <polygon id="Fill-38" fill="#F6FEFE" points="202.068148 50.517037 209.283951 50.517037 209.283951 43.3012346 202.068148 43.3012346"></polygon>
            <polygon id="Fill-39" fill="#F6FEFE" points="202.068148 43.3012346 209.283951 43.3012346 209.283951 36.0822222 202.068148 36.0822222"></polygon>
            <polygon id="Fill-40" fill="#BECBF5" points="194.849136 108.249877 202.067827 108.249877 202.067827 101.034074 194.849136 101.034074"></polygon>
            <polygon id="Fill-41" fill="#BECBF5" points="194.849136 101.034074 202.068148 101.034074 202.068148 93.8150617 194.849136 93.8150617"></polygon>
            <polygon id="Fill-42" fill="#D1FAFA" points="194.849136 93.8150617 202.068148 93.8150617 202.068148 86.5992593 194.849136 86.5992593"></polygon>
            <polygon id="Fill-43" fill="#D1FAFA" points="194.849136 86.5992593 202.068148 86.5992593 202.068148 79.3834568 194.849136 79.3834568"></polygon>
            <polygon id="Fill-44" fill="#D1FAFA" points="194.849136 79.3834568 202.068148 79.3834568 202.068148 72.1676543 194.849136 72.1676543"></polygon>
            <polygon id="Fill-45" fill="#D1FAFA" points="194.849136 72.1676543 202.068148 72.1676543 202.068148 64.948642 194.849136 64.948642"></polygon>
            <polygon id="Fill-46" fill="#D1FAFA" points="194.849136 64.948642 202.068148 64.948642 202.068148 57.7328395 194.849136 57.7328395"></polygon>
            <polygon id="Fill-47" fill="#D1FAFA" points="194.849136 57.7328395 202.068148 57.7328395 202.068148 50.517037 194.849136 50.517037"></polygon>
            <polygon id="Fill-48" fill="#D1FAFA" points="194.849136 50.517037 202.068148 50.517037 202.068148 43.3012346 194.849136 43.3012346"></polygon>
            <polygon id="Fill-49" fill="#F6FEFE" points="194.849136 43.3012346 202.068148 43.3012346 202.068148 36.0822222 194.849136 36.0822222"></polygon>
            <polygon id="Fill-50" fill="#F6FEFE" points="194.849136 36.0822222 202.068148 36.0822222 202.068148 28.8664198 194.849136 28.8664198"></polygon>
            <polygon id="Fill-51" fill="#BECBF5" points="187.633333 108.249877 194.849136 108.249877 194.849136 101.034074 187.633333 101.034074"></polygon>
            <polygon id="Fill-52" fill="#BECBF5" points="187.633333 101.034074 194.849136 101.034074 194.849136 93.8150617 187.633333 93.8150617"></polygon>
            <polygon id="Fill-53" fill="#D1FAFA" points="187.633333 93.8150617 194.849136 93.8150617 194.849136 86.5992593 187.633333 86.5992593"></polygon>
            <polygon id="Fill-54" fill="#D1FAFA" points="187.633333 86.5992593 194.849136 86.5992593 194.849136 79.3834568 187.633333 79.3834568"></polygon>
            <polygon id="Fill-55" fill="#D1FAFA" points="187.633333 79.3834568 194.849136 79.3834568 194.849136 72.1676543 187.633333 72.1676543"></polygon>
            <polygon id="Fill-56" fill="#D1FAFA" points="187.633333 72.1676543 194.849136 72.1676543 194.849136 64.948642 187.633333 64.948642"></polygon>
            <polygon id="Fill-57" fill="#D1FAFA" points="187.633333 64.948642 194.849136 64.948642 194.849136 57.7328395 187.633333 57.7328395"></polygon>
            <polygon id="Fill-58" fill="#D1FAFA" points="187.633333 57.7328395 194.849136 57.7328395 194.849136 50.517037 187.633333 50.517037"></polygon>
            <polygon id="Fill-59" fill="#D1FAFA" points="187.633333 50.517037 194.849136 50.517037 194.849136 43.3012346 187.633333 43.3012346"></polygon>
            <polygon id="Fill-60" fill="#F6FEFE" points="187.633333 43.3012346 194.849136 43.3012346 194.849136 36.0822222 187.633333 36.0822222"></polygon>
            <polygon id="Fill-61" fill="#F6FEFE" points="187.633333 36.0822222 194.849136 36.0822222 194.849136 28.8664198 187.633333 28.8664198"></polygon>
            <polygon id="Fill-62" fill="#BECBF5" points="180.417531 108.249877 187.633333 108.249877 187.633333 101.034074 180.417531 101.034074"></polygon>
            <polygon id="Fill-63" fill="#BECBF5" points="180.417531 101.034074 187.633333 101.034074 187.633333 93.8150617 180.417531 93.8150617"></polygon>
            <polygon id="Fill-64" fill="#D1FAFA" points="180.417531 93.8150617 187.633333 93.8150617 187.633333 86.5992593 180.417531 86.5992593"></polygon>
            <polygon id="Fill-65" fill="#D1FAFA" points="180.417531 86.5992593 187.633333 86.5992593 187.633333 79.3834568 180.417531 79.3834568"></polygon>
            <polygon id="Fill-66" fill="#D1FAFA" points="180.417531 79.3834568 187.633333 79.3834568 187.633333 72.1676543 180.417531 72.1676543"></polygon>
            <polygon id="Fill-67" fill="#D1FAFA" points="180.417531 72.1676543 187.633333 72.1676543 187.633333 64.948642 180.417531 64.948642"></polygon>
            <polygon id="Fill-68" fill="#D1FAFA" points="180.417531 64.948642 187.633333 64.948642 187.633333 57.7328395 180.417531 57.7328395"></polygon>
            <polygon id="Fill-69" fill="#D1FAFA" points="180.417531 57.7328395 187.633333 57.7328395 187.633333 50.517037 180.417531 50.517037"></polygon>
            <polygon id="Fill-70" fill="#D1FAFA" points="180.417531 50.517037 187.633333 50.517037 187.633333 43.3012346 180.417531 43.3012346"></polygon>
            <polygon id="Fill-71" fill="#F6FEFE" points="180.417531 43.3012346 187.633333 43.3012346 187.633333 36.0822222 180.417531 36.0822222"></polygon>
            <polygon id="Fill-72" fill="#F6FEFE" points="180.417531 36.0822222 187.633333 36.0822222 187.633333 28.8664198 180.417531 28.8664198"></polygon>
            <polygon id="Fill-73" fill="#BECBF5" points="173.201728 108.249877 180.417531 108.249877 180.417531 101.034074 173.201728 101.034074"></polygon>
            <polygon id="Fill-74" fill="#BECBF5" points="173.201728 101.034074 180.417531 101.034074 180.417531 93.8150617 173.201728 93.8150617"></polygon>
            <polygon id="Fill-75" fill="#D1FAFA" points="173.201728 93.8150617 180.417531 93.8150617 180.417531 86.5992593 173.201728 86.5992593"></polygon>
            <polygon id="Fill-76" fill="#D1FAFA" points="173.201728 86.5992593 180.417531 86.5992593 180.417531 79.3834568 173.201728 79.3834568"></polygon>
            <polygon id="Fill-77" fill="#D1FAFA" points="173.201728 79.3834568 180.417531 79.3834568 180.417531 72.1676543 173.201728 72.1676543"></polygon>
            <polygon id="Fill-78" fill="#D1FAFA" points="173.201728 72.1676543 180.417531 72.1676543 180.417531 64.948642 173.201728 64.948642"></polygon>
            <polygon id="Fill-79" fill="#D1FAFA" points="173.201728 64.948642 180.417531 64.948642 180.417531 57.7328395 173.201728 57.7328395"></polygon>
            <polygon id="Fill-80" fill="#D1FAFA" points="173.201728 57.7328395 180.417531 57.7328395 180.417531 50.517037 173.201728 50.517037"></polygon>
            <polygon id="Fill-81" fill="#D1FAFA" points="173.201728 50.517037 180.417531 50.517037 180.417531 43.3012346 173.201728 43.3012346"></polygon>
            <polygon id="Fill-82" fill="#F6FEFE" points="173.201728 43.3012346 180.417531 43.3012346 180.417531 36.0822222 173.201728 36.0822222"></polygon>
            <polygon id="Fill-83" fill="#F6FEFE" points="173.201728 36.0822222 180.417531 36.0822222 180.417531 28.8664198 173.201728 28.8664198"></polygon>
            <polygon id="Fill-84" fill="#F6FEFE" points="173.201728 28.8664198 180.417531 28.8664198 180.417531 21.6506173 173.201728 21.6506173"></polygon>
            <polygon id="Fill-85" fill="#F6FEFE" points="173.201728 21.6506173 180.417531 21.6506173 180.417531 14.4316049 173.201728 14.4316049"></polygon>
            <polygon id="Fill-86" fill="#F6FEFE" points="173.201728 14.4316049 180.417531 14.4316049 180.417531 7.21580247 173.201728 7.21580247"></polygon>
            <polygon id="Fill-87" fill="#BECBF5" points="165.982395 108.249877 173.201407 108.249877 173.201407 101.034074 165.982395 101.034074"></polygon>
            <polygon id="Fill-88" fill="#BECBF5" points="165.982716 101.034074 173.201728 101.034074 173.201728 93.8150617 165.982716 93.8150617"></polygon>
            <polygon id="Fill-89" fill="#BECBF5" points="165.982716 93.8150617 173.201728 93.8150617 173.201728 86.5992593 165.982716 86.5992593"></polygon>
            <polygon id="Fill-90" fill="#D1FAFA" points="165.982716 86.5992593 173.201728 86.5992593 173.201728 79.3834568 165.982716 79.3834568"></polygon>
            <polygon id="Fill-91" fill="#D1FAFA" points="165.982716 79.3834568 173.201728 79.3834568 173.201728 72.1676543 165.982716 72.1676543"></polygon>
            <polygon id="Fill-92" fill="#D1FAFA" points="165.982716 72.1676543 173.201728 72.1676543 173.201728 64.948642 165.982716 64.948642"></polygon>
            <polygon id="Fill-93" fill="#D1FAFA" points="165.982716 64.948642 173.201728 64.948642 173.201728 57.7328395 165.982716 57.7328395"></polygon>
            <polygon id="Fill-94" fill="#D1FAFA" points="165.982716 57.7328395 173.201728 57.7328395 173.201728 50.517037 165.982716 50.517037"></polygon>
            <polygon id="Fill-95" fill="#D1FAFA" points="165.982716 50.517037 173.201728 50.517037 173.201728 43.3012346 165.982716 43.3012346"></polygon>
            <polygon id="Fill-96" fill="#F6FEFE" points="165.982716 43.3012346 173.201728 43.3012346 173.201728 36.0822222 165.982716 36.0822222"></polygon>
            <polygon id="Fill-97" fill="#D1FAFA" points="165.982716 36.0822222 173.201728 36.0822222 173.201728 28.8664198 165.982716 28.8664198"></polygon>
            <polygon id="Fill-98" fill="#D1FAFA" points="165.982716 28.8664198 173.201728 28.8664198 173.201728 21.6506173 165.982716 21.6506173"></polygon>
            <polygon id="Fill-99" fill="#F6FEFE" points="165.982716 21.6506173 173.201728 21.6506173 173.201728 14.4316049 165.982716 14.4316049"></polygon>
            <polygon id="Fill-100" fill="#F6FEFE" points="165.982716 14.4316049 173.201728 14.4316049 173.201728 7.21580247 165.982716 7.21580247"></polygon>
            <polygon id="Fill-101" fill="#F6FEFE" points="165.982395 7.21580247 173.201407 7.21580247 173.201407 0 165.982395 0"></polygon>
            <polygon id="Fill-102" fill="#BECBF5" points="158.766914 108.249877 165.982395 108.249877 165.982395 101.034074 158.766914 101.034074"></polygon>
            <polygon id="Fill-103" fill="#BECBF5" points="158.766914 101.034074 165.982716 101.034074 165.982716 93.8150617 158.766914 93.8150617"></polygon>
            <polygon id="Fill-104" fill="#BECBF5" points="158.766914 93.8150617 165.982716 93.8150617 165.982716 86.5992593 158.766914 86.5992593"></polygon>
            <polygon id="Fill-105" fill="#D1FAFA" points="158.766914 86.5992593 165.982716 86.5992593 165.982716 79.3834568 158.766914 79.3834568"></polygon>
            <polygon id="Fill-106" fill="#D1FAFA" points="158.766914 79.3834568 165.982716 79.3834568 165.982716 72.1676543 158.766914 72.1676543"></polygon>
            <polygon id="Fill-107" fill="#D1FAFA" points="158.766914 72.1676543 165.982716 72.1676543 165.982716 64.948642 158.766914 64.948642"></polygon>
            <polygon id="Fill-108" fill="#D1FAFA" points="158.766914 64.948642 165.982716 64.948642 165.982716 57.7328395 158.766914 57.7328395"></polygon>
            <polygon id="Fill-109" fill="#D1FAFA" points="158.766914 57.7328395 165.982716 57.7328395 165.982716 50.517037 158.766914 50.517037"></polygon>
            <polygon id="Fill-110" fill="#D1FAFA" points="158.766914 50.517037 165.982716 50.517037 165.982716 43.3012346 158.766914 43.3012346"></polygon>
            <polygon id="Fill-111" fill="#D1FAFA" points="158.766914 43.3012346 165.982716 43.3012346 165.982716 36.0822222 158.766914 36.0822222"></polygon>
            <polygon id="Fill-112" fill="#D1FAFA" points="158.766914 36.0822222 165.982716 36.0822222 165.982716 28.8664198 158.766914 28.8664198"></polygon>
            <polygon id="Fill-113" fill="#D1FAFA" points="158.766914 28.8664198 165.982716 28.8664198 165.982716 21.6506173 158.766914 21.6506173"></polygon>
            <polygon id="Fill-114" fill="#F6FEFE" points="158.766914 21.6506173 165.982716 21.6506173 165.982716 14.4316049 158.766914 14.4316049"></polygon>
            <polygon id="Fill-115" fill="#F6FEFE" points="158.766914 14.4316049 165.982716 14.4316049 165.982716 7.21580247 158.766914 7.21580247"></polygon>
            <polygon id="Fill-116" fill="#F6FEFE" points="158.766914 7.21580247 165.982395 7.21580247 165.982395 0 158.766914 0"></polygon>
            <polygon id="Fill-117" fill="#BECBF5" points="151.551111 108.249877 158.766914 108.249877 158.766914 101.034074 151.551111 101.034074"></polygon>
            <polygon id="Fill-118" fill="#BECBF5" points="151.551111 101.034074 158.766593 101.034074 158.766593 93.8150617 151.551111 93.8150617"></polygon>
            <polygon id="Fill-119" fill="#BECBF5" points="151.551111 93.8150617 158.766593 93.8150617 158.766593 86.5992593 151.551111 86.5992593"></polygon>
            <polygon id="Fill-120" fill="#BECBF5" points="151.551111 86.5992593 158.766593 86.5992593 158.766593 79.3834568 151.551111 79.3834568"></polygon>
            <polygon id="Fill-121" fill="#D1FAFA" points="151.551111 79.3834568 158.766593 79.3834568 158.766593 72.1676543 151.551111 72.1676543"></polygon>
            <polygon id="Fill-122" fill="#D1FAFA" points="151.551111 72.1676543 158.766593 72.1676543 158.766593 64.948642 151.551111 64.948642"></polygon>
            <polygon id="Fill-123" fill="#D1FAFA" points="151.551111 64.948642 158.766593 64.948642 158.766593 57.7328395 151.551111 57.7328395"></polygon>
            <polygon id="Fill-124" fill="#D1FAFA" points="151.551111 57.7328395 158.766593 57.7328395 158.766593 50.517037 151.551111 50.517037"></polygon>
            <polygon id="Fill-125" fill="#D1FAFA" points="151.551111 50.517037 158.766593 50.517037 158.766593 43.3012346 151.551111 43.3012346"></polygon>
            <polygon id="Fill-126" fill="#D1FAFA" points="151.551111 43.3012346 158.766593 43.3012346 158.766593 36.0822222 151.551111 36.0822222"></polygon>
            <polygon id="Fill-127" fill="#D1FAFA" points="151.551111 36.0822222 158.766593 36.0822222 158.766593 28.8664198 151.551111 28.8664198"></polygon>
            <polygon id="Fill-128" fill="#D1FAFA" points="151.551111 28.8664198 158.766593 28.8664198 158.766593 21.6506173 151.551111 21.6506173"></polygon>
            <polygon id="Fill-129" fill="#F6FEFE" points="151.551111 21.6506173 158.766593 21.6506173 158.766593 14.4316049 151.551111 14.4316049"></polygon>
            <polygon id="Fill-130" fill="#F6FEFE" points="151.551111 14.4316049 158.766593 14.4316049 158.766593 7.21580247 151.551111 7.21580247"></polygon>
            <polygon id="Fill-131" fill="#F6FEFE" points="151.551111 7.21580247 158.766914 7.21580247 158.766914 0 151.551111 0"></polygon>
            <polygon id="Fill-132" fill="#BECBF5" points="144.332099 108.249877 151.551111 108.249877 151.551111 101.034074 144.332099 101.034074"></polygon>
            <polygon id="Fill-133" fill="#BECBF5" points="144.332099 101.034074 151.551111 101.034074 151.551111 93.8150617 144.332099 93.8150617"></polygon>
            <polygon id="Fill-134" fill="#BECBF5" points="144.332099 93.8150617 151.551111 93.8150617 151.551111 86.5992593 144.332099 86.5992593"></polygon>
            <polygon id="Fill-135" fill="#D1FAFA" points="144.332099 86.5992593 151.551111 86.5992593 151.551111 79.3834568 144.332099 79.3834568"></polygon>
            <polygon id="Fill-136" fill="#D1FAFA" points="144.332099 79.3834568 151.551111 79.3834568 151.551111 72.1676543 144.332099 72.1676543"></polygon>
            <polygon id="Fill-137" fill="#D1FAFA" points="144.332099 72.1676543 151.551111 72.1676543 151.551111 64.948642 144.332099 64.948642"></polygon>
            <polygon id="Fill-138" fill="#D1FAFA" points="144.332099 64.948642 151.551111 64.948642 151.551111 57.7328395 144.332099 57.7328395"></polygon>
            <polygon id="Fill-139" fill="#D1FAFA" points="144.332099 57.7328395 151.551111 57.7328395 151.551111 50.517037 144.332099 50.517037"></polygon>
            <polygon id="Fill-140" fill="#D1FAFA" points="144.332099 50.517037 151.551111 50.517037 151.551111 43.3012346 144.332099 43.3012346"></polygon>
            <polygon id="Fill-141" fill="#D1FAFA" points="144.332099 43.3012346 151.551111 43.3012346 151.551111 36.0822222 144.332099 36.0822222"></polygon>
            <polygon id="Fill-142" fill="#D1FAFA" points="144.332099 36.0822222 151.551111 36.0822222 151.551111 28.8664198 144.332099 28.8664198"></polygon>
            <polygon id="Fill-143" fill="#D1FAFA" points="144.332099 28.8664198 151.551111 28.8664198 151.551111 21.6506173 144.332099 21.6506173"></polygon>
            <polygon id="Fill-144" fill="#D1FAFA" points="144.332099 21.6506173 151.551111 21.6506173 151.551111 14.4316049 144.332099 14.4316049"></polygon>
            <polygon id="Fill-145" fill="#F6FEFE" points="144.332099 14.4316049 151.551111 14.4316049 151.551111 7.21580247 144.332099 7.21580247"></polygon>
            <polygon id="Fill-146" fill="#F6FEFE" points="144.332099 7.21580247 151.551111 7.21580247 151.551111 0 144.332099 0"></polygon>
            <polygon id="Fill-147" fill="#BECBF5" points="137.116296 101.034074 144.332099 101.034074 144.332099 93.8150617 137.116296 93.8150617"></polygon>
            <polygon id="Fill-148" fill="#D1FAFA" points="137.116296 93.8150617 144.332099 93.8150617 144.332099 86.5992593 137.116296 86.5992593"></polygon>
            <polygon id="Fill-149" fill="#D1FAFA" points="137.116296 86.5992593 144.332099 86.5992593 144.332099 79.3834568 137.116296 79.3834568"></polygon>
            <polygon id="Fill-150" fill="#D1FAFA" points="137.116296 79.3834568 144.332099 79.3834568 144.332099 72.1676543 137.116296 72.1676543"></polygon>
            <polygon id="Fill-151" fill="#D1FAFA" points="137.116296 72.1676543 144.332099 72.1676543 144.332099 64.948642 137.116296 64.948642"></polygon>
            <polygon id="Fill-152" fill="#BECBF5" points="137.116296 64.948642 144.332099 64.948642 144.332099 57.7328395 137.116296 57.7328395"></polygon>
            <polygon id="Fill-153" fill="#D1FAFA" points="137.116296 57.7328395 144.332099 57.7328395 144.332099 50.517037 137.116296 50.517037"></polygon>
            <polygon id="Fill-154" fill="#F6FEFE" points="137.116296 50.517037 144.332099 50.517037 144.332099 43.3012346 137.116296 43.3012346"></polygon>
            <polygon id="Fill-155" fill="#D1FAFA" points="137.116296 43.3012346 144.332099 43.3012346 144.332099 36.0822222 137.116296 36.0822222"></polygon>
            <polygon id="Fill-156" fill="#D1FAFA" points="137.116296 36.0822222 144.332099 36.0822222 144.332099 28.8664198 137.116296 28.8664198"></polygon>
            <polygon id="Fill-157" fill="#D1FAFA" points="137.116296 28.8664198 144.332099 28.8664198 144.332099 21.6506173 137.116296 21.6506173"></polygon>
            <polygon id="Fill-158" fill="#D1FAFA" points="137.116296 21.6506173 144.332099 21.6506173 144.332099 14.4316049 137.116296 14.4316049"></polygon>
            <polygon id="Fill-159" fill="#F6FEFE" points="137.116296 14.4316049 144.332099 14.4316049 144.332099 7.21580247 137.116296 7.21580247"></polygon>
            <polygon id="Fill-160" fill="#F6FEFE" points="137.116296 7.21580247 144.332099 7.21580247 144.332099 0 137.116296 0"></polygon>
            <polygon id="Fill-161" fill="#BECBF5" points="129.900494 101.034074 137.116296 101.034074 137.116296 93.8150617 129.900494 93.8150617"></polygon>
            <polygon id="Fill-162" fill="#D1FAFA" points="129.900494 93.8150617 137.116296 93.8150617 137.116296 86.5992593 129.900494 86.5992593"></polygon>
            <polygon id="Fill-163" fill="#D1FAFA" points="129.900494 86.5992593 137.116296 86.5992593 137.116296 79.3834568 129.900494 79.3834568"></polygon>
            <polygon id="Fill-164" fill="#D1FAFA" points="129.900494 79.3834568 137.116296 79.3834568 137.116296 72.1676543 129.900494 72.1676543"></polygon>
            <polygon id="Fill-165" fill="#BECBF5" points="129.900494 72.1676543 137.116296 72.1676543 137.116296 64.948642 129.900494 64.948642"></polygon>
            <polygon id="Fill-166" fill="#D1FAFA" points="129.900494 64.948642 137.116296 64.948642 137.116296 57.7328395 129.900494 57.7328395"></polygon>
            <polygon id="Fill-167" fill="#D1FAFA" points="129.900494 57.7328395 137.116296 57.7328395 137.116296 50.517037 129.900494 50.517037"></polygon>
            <polygon id="Fill-168" fill="#D1FAFA" points="129.900494 50.517037 137.116296 50.517037 137.116296 43.3012346 129.900494 43.3012346"></polygon>
            <polygon id="Fill-169" fill="#F6FEFE" points="129.900494 43.3012346 137.116296 43.3012346 137.116296 36.0822222 129.900494 36.0822222"></polygon>
            <polygon id="Fill-170" fill="#D1FAFA" points="129.900494 36.0822222 137.116296 36.0822222 137.116296 28.8664198 129.900494 28.8664198"></polygon>
            <polygon id="Fill-171" fill="#D1FAFA" points="129.900494 28.8664198 137.116296 28.8664198 137.116296 21.6506173 129.900494 21.6506173"></polygon>
            <polygon id="Fill-172" fill="#D1FAFA" points="129.900494 21.6506173 137.116296 21.6506173 137.116296 14.4316049 129.900494 14.4316049"></polygon>
            <polygon id="Fill-173" fill="#F6FEFE" points="129.900494 14.4316049 137.116296 14.4316049 137.116296 7.21580247 129.900494 7.21580247"></polygon>
            <polygon id="Fill-174" fill="#BECBF5" points="122.684691 108.249877 129.900494 108.249877 129.900494 101.034074 122.684691 101.034074"></polygon>
            <polygon id="Fill-175" fill="#BECBF5" points="122.684691 101.034074 129.900494 101.034074 129.900494 93.8150617 122.684691 93.8150617"></polygon>
            <polygon id="Fill-176" fill="#D1FAFA" points="122.684691 93.8150617 129.900494 93.8150617 129.900494 86.5992593 122.684691 86.5992593"></polygon>
            <polygon id="Fill-177" fill="#D1FAFA" points="122.684691 86.5992593 129.900494 86.5992593 129.900494 79.3834568 122.684691 79.3834568"></polygon>
            <polygon id="Fill-178" fill="#D1FAFA" points="122.684691 79.3834568 129.900494 79.3834568 129.900494 72.1676543 122.684691 72.1676543"></polygon>
            <polygon id="Fill-179" fill="#BECBF5" points="122.684691 72.1676543 129.900494 72.1676543 129.900494 64.948642 122.684691 64.948642"></polygon>
            <polygon id="Fill-180" fill="#D1FAFA" points="122.684691 64.948642 129.900494 64.948642 129.900494 57.7328395 122.684691 57.7328395"></polygon>
            <polygon id="Fill-181" fill="#D1FAFA" points="122.684691 57.7328395 129.900494 57.7328395 129.900494 50.517037 122.684691 50.517037"></polygon>
            <polygon id="Fill-182" fill="#D1FAFA" points="122.684691 50.517037 129.900494 50.517037 129.900494 43.3012346 122.684691 43.3012346"></polygon>
            <polygon id="Fill-183" fill="#D1FAFA" points="122.684691 43.3012346 129.900494 43.3012346 129.900494 36.0822222 122.684691 36.0822222"></polygon>
            <polygon id="Fill-184" fill="#D1FAFA" points="122.684691 36.0822222 129.900494 36.0822222 129.900494 28.8664198 122.684691 28.8664198"></polygon>
            <polygon id="Fill-185" fill="#D1FAFA" points="122.684691 28.8664198 129.900494 28.8664198 129.900494 21.6506173 122.684691 21.6506173"></polygon>
            <polygon id="Fill-186" fill="#F6FEFE" points="122.684691 21.6506173 129.900494 21.6506173 129.900494 14.4316049 122.684691 14.4316049"></polygon>
            <polygon id="Fill-187" fill="#F6FEFE" points="122.684691 14.4316049 129.900494 14.4316049 129.900494 7.21580247 122.684691 7.21580247"></polygon>
            <polygon id="Fill-188" fill="#BECBF5" points="115.465679 108.249877 122.684691 108.249877 122.684691 101.034074 115.465679 101.034074"></polygon>
            <polygon id="Fill-189" fill="#BECBF5" points="115.465679 101.034074 122.684691 101.034074 122.684691 93.8150617 115.465679 93.8150617"></polygon>
            <polygon id="Fill-190" fill="#BECBF5" points="115.465679 93.8150617 122.684691 93.8150617 122.684691 86.5992593 115.465679 86.5992593"></polygon>
            <polygon id="Fill-191" fill="#D1FAFA" points="115.465679 86.5992593 122.684691 86.5992593 122.684691 79.3834568 115.465679 79.3834568"></polygon>
            <polygon id="Fill-192" fill="#BECBF5" points="115.465679 79.3834568 122.684691 79.3834568 122.684691 72.1676543 115.465679 72.1676543"></polygon>
            <polygon id="Fill-193" fill="#D1FAFA" points="115.465679 72.1676543 122.684691 72.1676543 122.684691 64.948642 115.465679 64.948642"></polygon>
            <polygon id="Fill-194" fill="#D1FAFA" points="115.465679 64.948642 122.684691 64.948642 122.684691 57.7328395 115.465679 57.7328395"></polygon>
            <polygon id="Fill-195" fill="#D1FAFA" points="115.465679 57.7328395 122.684691 57.7328395 122.684691 50.517037 115.465679 50.517037"></polygon>
            <polygon id="Fill-196" fill="#D1FAFA" points="115.465679 50.517037 122.684691 50.517037 122.684691 43.3012346 115.465679 43.3012346"></polygon>
            <polygon id="Fill-197" fill="#D1FAFA" points="115.465679 43.3012346 122.684691 43.3012346 122.684691 36.0822222 115.465679 36.0822222"></polygon>
            <polygon id="Fill-198" fill="#F6FEFE" points="115.465679 36.0822222 122.684691 36.0822222 122.684691 28.8664198 115.465679 28.8664198"></polygon>
            <polygon id="Fill-199" fill="#F6FEFE" points="115.465679 28.8664198 122.684691 28.8664198 122.684691 21.6506173 115.465679 21.6506173"></polygon>
            <polygon id="Fill-200" fill="#F6FEFE" points="115.465679 21.6506173 122.684691 21.6506173 122.684691 14.4316049 115.465679 14.4316049"></polygon>
            <polygon id="Fill-201" fill="#BECBF5" points="108.249877 108.249877 115.465679 108.249877 115.465679 101.034074 108.249877 101.034074"></polygon>
            <polygon id="Fill-202" fill="#BECBF5" points="108.249877 101.034074 115.465679 101.034074 115.465679 93.8150617 108.249877 93.8150617"></polygon>
            <polygon id="Fill-203" fill="#BECBF5" points="108.249877 93.8150617 115.465679 93.8150617 115.465679 86.5992593 108.249877 86.5992593"></polygon>
            <polygon id="Fill-204" fill="#BECBF5" points="108.249877 86.5992593 115.465679 86.5992593 115.465679 79.3834568 108.249877 79.3834568"></polygon>
            <polygon id="Fill-205" fill="#BECBF5" points="108.249877 79.3834568 115.465679 79.3834568 115.465679 72.1676543 108.249877 72.1676543"></polygon>
            <polygon id="Fill-206" fill="#D1FAFA" points="108.249877 72.1676543 115.465679 72.1676543 115.465679 64.948642 108.249877 64.948642"></polygon>
            <polygon id="Fill-207" fill="#D1FAFA" points="108.249877 64.948642 115.465679 64.948642 115.465679 57.7328395 108.249877 57.7328395"></polygon>
            <polygon id="Fill-208" fill="#D1FAFA" points="108.249877 57.7328395 115.465679 57.7328395 115.465679 50.517037 108.249877 50.517037"></polygon>
            <polygon id="Fill-209" fill="#D1FAFA" points="108.249877 50.517037 115.465679 50.517037 115.465679 43.3012346 108.249877 43.3012346"></polygon>
            <polygon id="Fill-210" fill="#F6FEFE" points="108.249877 43.3012346 115.465679 43.3012346 115.465679 36.0822222 108.249877 36.0822222"></polygon>
            <polygon id="Fill-211" fill="#F6FEFE" points="108.249877 36.0822222 115.465679 36.0822222 115.465679 28.8664198 108.249877 28.8664198"></polygon>
            <polygon id="Fill-212" fill="#BECBF5" points="101.034074 108.249877 108.249877 108.249877 108.249877 101.034074 101.034074 101.034074"></polygon>
            <polygon id="Fill-213" fill="#BECBF5" points="101.034074 101.034074 108.249877 101.034074 108.249877 93.8150617 101.034074 93.8150617"></polygon>
            <polygon id="Fill-214" fill="#BECBF5" points="101.034074 93.8150617 108.249877 93.8150617 108.249877 86.5992593 101.034074 86.5992593"></polygon>
            <polygon id="Fill-215" fill="#BECBF5" points="101.034074 86.5992593 108.249877 86.5992593 108.249877 79.3834568 101.034074 79.3834568"></polygon>
            <polygon id="Fill-216" fill="#D1FAFA" points="101.034074 79.3834568 108.249877 79.3834568 108.249877 72.1676543 101.034074 72.1676543"></polygon>
            <polygon id="Fill-217" fill="#D1FAFA" points="101.034074 72.1676543 108.249877 72.1676543 108.249877 64.948642 101.034074 64.948642"></polygon>
            <polygon id="Fill-218" fill="#D1FAFA" points="101.034074 64.948642 108.249877 64.948642 108.249877 57.7328395 101.034074 57.7328395"></polygon>
            <polygon id="Fill-219" fill="#D1FAFA" points="101.034074 57.7328395 108.249877 57.7328395 108.249877 50.517037 101.034074 50.517037"></polygon>
            <polygon id="Fill-220" fill="#D1FAFA" points="101.034074 50.517037 108.249877 50.517037 108.249877 43.3012346 101.034074 43.3012346"></polygon>
            <polygon id="Fill-221" fill="#F6FEFE" points="101.034074 43.3012346 108.249877 43.3012346 108.249877 36.0822222 101.034074 36.0822222"></polygon>
            <polygon id="Fill-222" fill="#F6FEFE" points="101.034074 36.0822222 108.249877 36.0822222 108.249877 28.8664198 101.034074 28.8664198"></polygon>
            <polygon id="Fill-223" fill="#F6FEFE" points="101.034074 28.8664198 108.249877 28.8664198 108.249877 21.6506173 101.034074 21.6506173"></polygon>
            <polygon id="Fill-224" fill="#BECBF5" points="93.8182716 101.034074 101.034074 101.034074 101.034074 93.8150617 93.8182716 93.8150617"></polygon>
            <polygon id="Fill-225" fill="#BECBF5" points="93.8182716 93.8150617 101.034074 93.8150617 101.034074 86.5992593 93.8182716 86.5992593"></polygon>
            <polygon id="Fill-226" fill="#BECBF5" points="93.8182716 86.5992593 101.034074 86.5992593 101.034074 79.3834568 93.8182716 79.3834568"></polygon>
            <polygon id="Fill-227" fill="#D1FAFA" points="93.8182716 79.3834568 101.034074 79.3834568 101.034074 72.1676543 93.8182716 72.1676543"></polygon>
            <polygon id="Fill-228" fill="#D1FAFA" points="93.8182716 72.1676543 101.034074 72.1676543 101.034074 64.948642 93.8182716 64.948642"></polygon>
            <polygon id="Fill-229" fill="#D1FAFA" points="93.8182716 64.948642 101.034074 64.948642 101.034074 57.7328395 93.8182716 57.7328395"></polygon>
            <polygon id="Fill-230" fill="#D1FAFA" points="93.8182716 57.7328395 101.034074 57.7328395 101.034074 50.517037 93.8182716 50.517037"></polygon>
            <polygon id="Fill-231" fill="#D1FAFA" points="93.8182716 50.517037 101.034074 50.517037 101.034074 43.3012346 93.8182716 43.3012346"></polygon>
            <polygon id="Fill-232" fill="#F6FEFE" points="93.8182716 43.3012346 101.034074 43.3012346 101.034074 36.0822222 93.8182716 36.0822222"></polygon>
            <polygon id="Fill-233" fill="#F6FEFE" points="93.8182716 36.0822222 101.034074 36.0822222 101.034074 28.8664198 93.8182716 28.8664198"></polygon>
            <polygon id="Fill-234" fill="#F6FEFE" points="93.8182716 28.8664198 101.034074 28.8664198 101.034074 21.6506173 93.8182716 21.6506173"></polygon>
            <polygon id="Fill-235" fill="#BECBF5" points="86.5992593 108.249877 93.8182716 108.249877 93.8182716 101.034074 86.5992593 101.034074"></polygon>
            <polygon id="Fill-236" fill="#BECBF5" points="86.5992593 101.034074 93.8182716 101.034074 93.8182716 93.8150617 86.5992593 93.8150617"></polygon>
            <polygon id="Fill-237" fill="#BECBF5" points="86.5992593 93.8150617 93.8182716 93.8150617 93.8182716 86.5992593 86.5992593 86.5992593"></polygon>
            <polygon id="Fill-238" fill="#D1FAFA" points="86.5992593 86.5992593 93.8182716 86.5992593 93.8182716 79.3834568 86.5992593 79.3834568"></polygon>
            <polygon id="Fill-239" fill="#BECBF5" points="86.5992593 79.3834568 93.8182716 79.3834568 93.8182716 72.1676543 86.5992593 72.1676543"></polygon>
            <polygon id="Fill-240" fill="#D1FAFA" points="86.5992593 72.1676543 93.8182716 72.1676543 93.8182716 64.948642 86.5992593 64.948642"></polygon>
            <polygon id="Fill-241" fill="#D1FAFA" points="86.5992593 64.948642 93.8182716 64.948642 93.8182716 57.7328395 86.5992593 57.7328395"></polygon>
            <polygon id="Fill-242" fill="#D1FAFA" points="86.5992593 57.7328395 93.8182716 57.7328395 93.8182716 50.517037 86.5992593 50.517037"></polygon>
            <polygon id="Fill-243" fill="#D1FAFA" points="86.5992593 50.517037 93.8182716 50.517037 93.8182716 43.3012346 86.5992593 43.3012346"></polygon>
            <polygon id="Fill-244" fill="#F6FEFE" points="86.5992593 43.3012346 93.8182716 43.3012346 93.8182716 36.0822222 86.5992593 36.0822222"></polygon>
            <polygon id="Fill-245" fill="#F6FEFE" points="86.5992593 36.0822222 93.8182716 36.0822222 93.8182716 28.8664198 86.5992593 28.8664198"></polygon>
            <polygon id="Fill-246" fill="#BECBF5" points="79.3834568 108.249877 86.5992593 108.249877 86.5992593 101.034074 79.3834568 101.034074"></polygon>
            <polygon id="Fill-247" fill="#BECBF5" points="79.3834568 101.034074 86.5992593 101.034074 86.5992593 93.8150617 79.3834568 93.8150617"></polygon>
            <polygon id="Fill-248" fill="#D1FAFA" points="79.3834568 93.8150617 86.5992593 93.8150617 86.5992593 86.5992593 79.3834568 86.5992593"></polygon>
            <polygon id="Fill-249" fill="#D1FAFA" points="79.3834568 86.5992593 86.5992593 86.5992593 86.5992593 79.3834568 79.3834568 79.3834568"></polygon>
            <polygon id="Fill-250" fill="#BECBF5" points="79.3834568 79.3834568 86.5992593 79.3834568 86.5992593 72.1676543 79.3834568 72.1676543"></polygon>
            <polygon id="Fill-251" fill="#D1FAFA" points="79.3834568 72.1676543 86.5992593 72.1676543 86.5992593 64.948642 79.3834568 64.948642"></polygon>
            <polygon id="Fill-252" fill="#D1FAFA" points="79.3834568 64.948642 86.5992593 64.948642 86.5992593 57.7328395 79.3834568 57.7328395"></polygon>
            <polygon id="Fill-253" fill="#D1FAFA" points="79.3834568 57.7328395 86.5992593 57.7328395 86.5992593 50.517037 79.3834568 50.517037"></polygon>
            <polygon id="Fill-254" fill="#D1FAFA" points="79.3834568 50.517037 86.5992593 50.517037 86.5992593 43.3012346 79.3834568 43.3012346"></polygon>
            <polygon id="Fill-255" fill="#F6FEFE" points="79.3834568 43.3012346 86.5992593 43.3012346 86.5992593 36.0822222 79.3834568 36.0822222"></polygon>
            <polygon id="Fill-256" fill="#BECBF5" points="72.1676543 108.249877 79.3834568 108.249877 79.3834568 101.034074 72.1676543 101.034074"></polygon>
            <polygon id="Fill-257" fill="#D1FAFA" points="72.1676543 101.034074 79.3834568 101.034074 79.3834568 93.8150617 72.1676543 93.8150617"></polygon>
            <polygon id="Fill-258" fill="#D1FAFA" points="72.1676543 93.8150617 79.3834568 93.8150617 79.3834568 86.5992593 72.1676543 86.5992593"></polygon>
            <polygon id="Fill-259" fill="#D1FAFA" points="72.1676543 86.5992593 79.3834568 86.5992593 79.3834568 79.3834568 72.1676543 79.3834568"></polygon>
            <polygon id="Fill-260" fill="#D1FAFA" points="72.1676543 79.3834568 79.3834568 79.3834568 79.3834568 72.1676543 72.1676543 72.1676543"></polygon>
            <polygon id="Fill-261" fill="#BECBF5" points="72.1676543 72.1676543 79.3834568 72.1676543 79.3834568 64.948642 72.1676543 64.948642"></polygon>
            <polygon id="Fill-262" fill="#D1FAFA" points="72.1676543 64.948642 79.3834568 64.948642 79.3834568 57.7328395 72.1676543 57.7328395"></polygon>
            <polygon id="Fill-263" fill="#D1FAFA" points="72.1676543 57.7328395 79.3834568 57.7328395 79.3834568 50.517037 72.1676543 50.517037"></polygon>
            <polygon id="Fill-264" fill="#F6FEFE" points="72.1676543 50.517037 79.3834568 50.517037 79.3834568 43.3012346 72.1676543 43.3012346"></polygon>
            <polygon id="Fill-265" fill="#BECBF5" points="64.948642 108.249877 72.1676543 108.249877 72.1676543 101.034074 64.948642 101.034074"></polygon>
            <polygon id="Fill-266" fill="#D1FAFA" points="64.948642 101.034074 72.1676543 101.034074 72.1676543 93.8150617 64.948642 93.8150617"></polygon>
            <polygon id="Fill-267" fill="#D1FAFA" points="64.948642 93.8150617 72.1676543 93.8150617 72.1676543 86.5992593 64.948642 86.5992593"></polygon>
            <polygon id="Fill-268" fill="#D1FAFA" points="64.948642 86.5992593 72.1676543 86.5992593 72.1676543 79.3834568 64.948642 79.3834568"></polygon>
            <polygon id="Fill-269" fill="#D1FAFA" points="64.948642 79.3834568 72.1676543 79.3834568 72.1676543 72.1676543 64.948642 72.1676543"></polygon>
            <polygon id="Fill-270" fill="#D1FAFA" points="64.948642 72.1676543 72.1676543 72.1676543 72.1676543 64.948642 64.948642 64.948642"></polygon>
            <polygon id="Fill-271" fill="#D1FAFA" points="64.948642 64.948642 72.1676543 64.948642 72.1676543 57.7328395 64.948642 57.7328395"></polygon>
            <polygon id="Fill-272" fill="#D1FAFA" points="64.948642 57.7328395 72.1676543 57.7328395 72.1676543 50.517037 64.948642 50.517037"></polygon>
            <polygon id="Fill-273" fill="#F6FEFE" points="64.948642 50.517037 72.1676543 50.517037 72.1676543 43.3012346 64.948642 43.3012346"></polygon>
            <polygon id="Fill-274" fill="#BECBF5" points="57.7328395 108.249877 64.948642 108.249877 64.948642 101.034074 57.7328395 101.034074"></polygon>
            <polygon id="Fill-275" fill="#D1FAFA" points="57.7328395 101.034074 64.948642 101.034074 64.948642 93.8150617 57.7328395 93.8150617"></polygon>
            <polygon id="Fill-276" fill="#D1FAFA" points="57.7328395 93.8150617 64.948642 93.8150617 64.948642 86.5992593 57.7328395 86.5992593"></polygon>
            <polygon id="Fill-277" fill="#D1FAFA" points="57.7328395 86.5992593 64.948642 86.5992593 64.948642 79.3834568 57.7328395 79.3834568"></polygon>
            <polygon id="Fill-278" fill="#D1FAFA" points="57.7328395 79.3834568 64.948642 79.3834568 64.948642 72.1676543 57.7328395 72.1676543"></polygon>
            <polygon id="Fill-279" fill="#D1FAFA" points="57.7328395 72.1676543 64.948642 72.1676543 64.948642 64.948642 57.7328395 64.948642"></polygon>
            <polygon id="Fill-280" fill="#D1FAFA" points="57.7328395 64.948642 64.948642 64.948642 64.948642 57.7328395 57.7328395 57.7328395"></polygon>
            <polygon id="Fill-281" fill="#D1FAFA" points="57.7328395 57.7328395 64.948642 57.7328395 64.948642 50.517037 57.7328395 50.517037"></polygon>
            <polygon id="Fill-282" fill="#D1FAFA" points="57.7328395 50.517037 64.948642 50.517037 64.948642 43.3012346 57.7328395 43.3012346"></polygon>
            <polygon id="Fill-283" fill="#F6FEFE" points="57.7328395 43.3012346 64.948642 43.3012346 64.948642 36.0822222 57.7328395 36.0822222"></polygon>
            <polygon id="Fill-284" fill="#BECBF5" points="50.517037 101.034074 57.7328395 101.034074 57.7328395 93.8150617 50.517037 93.8150617"></polygon>
            <polygon id="Fill-285" fill="#D1FAFA" points="50.517037 93.8150617 57.7328395 93.8150617 57.7328395 86.5992593 50.517037 86.5992593"></polygon>
            <polygon id="Fill-286" fill="#D1FAFA" points="50.517037 86.5992593 57.7328395 86.5992593 57.7328395 79.3834568 50.517037 79.3834568"></polygon>
            <polygon id="Fill-287" fill="#D1FAFA" points="50.517037 79.3834568 57.7328395 79.3834568 57.7328395 72.1676543 50.517037 72.1676543"></polygon>
            <polygon id="Fill-288" fill="#D1FAFA" points="50.517037 72.1676543 57.7328395 72.1676543 57.7328395 64.948642 50.517037 64.948642"></polygon>
            <polygon id="Fill-289" fill="#D1FAFA" points="50.517037 64.948642 57.7328395 64.948642 57.7328395 57.7328395 50.517037 57.7328395"></polygon>
            <polygon id="Fill-290" fill="#D1FAFA" points="50.517037 57.7328395 57.7328395 57.7328395 57.7328395 50.517037 50.517037 50.517037"></polygon>
            <polygon id="Fill-291" fill="#D1FAFA" points="50.517037 50.517037 57.7328395 50.517037 57.7328395 43.3012346 50.517037 43.3012346"></polygon>
            <polygon id="Fill-292" fill="#F6FEFE" points="50.517037 43.3012346 57.7328395 43.3012346 57.7328395 36.0822222 50.517037 36.0822222"></polygon>
            <polygon id="Fill-293" fill="#BECBF5" points="43.3012346 101.034074 50.517037 101.034074 50.517037 93.8150617 43.3012346 93.8150617"></polygon>
            <polygon id="Fill-294" fill="#D1FAFA" points="43.3012346 93.8150617 50.517037 93.8150617 50.517037 86.5992593 43.3012346 86.5992593"></polygon>
            <polygon id="Fill-295" fill="#D1FAFA" points="43.3012346 86.5992593 50.517037 86.5992593 50.517037 79.3834568 43.3012346 79.3834568"></polygon>
            <polygon id="Fill-296" fill="#BECBF5" points="43.3012346 79.3834568 50.517037 79.3834568 50.517037 72.1676543 43.3012346 72.1676543"></polygon>
            <polygon id="Fill-297" fill="#D1FAFA" points="43.3012346 72.1676543 50.517037 72.1676543 50.517037 64.948642 43.3012346 64.948642"></polygon>
            <polygon id="Fill-298" fill="#D1FAFA" points="43.3012346 64.948642 50.517037 64.948642 50.517037 57.7328395 43.3012346 57.7328395"></polygon>
            <polygon id="Fill-299" fill="#D1FAFA" points="43.3012346 57.7328395 50.517037 57.7328395 50.517037 50.517037 43.3012346 50.517037"></polygon>
            <polygon id="Fill-300" fill="#F6FEFE" points="43.3012346 50.517037 50.517037 50.517037 50.517037 43.3012346 43.3012346 43.3012346"></polygon>
            <polygon id="Fill-301" fill="#F6FEFE" points="43.3012346 43.3012346 50.517037 43.3012346 50.517037 36.0822222 43.3012346 36.0822222"></polygon>
            <polygon id="Fill-302" fill="#BECBF5" points="36.0822222 101.034074 43.3012346 101.034074 43.3012346 93.8150617 36.0822222 93.8150617"></polygon>
            <polygon id="Fill-303" fill="#D1FAFA" points="36.0822222 93.8150617 43.3012346 93.8150617 43.3012346 86.5992593 36.0822222 86.5992593"></polygon>
            <polygon id="Fill-304" fill="#D1FAFA" points="36.0822222 86.5992593 43.3012346 86.5992593 43.3012346 79.3834568 36.0822222 79.3834568"></polygon>
            <polygon id="Fill-305" fill="#BECBF5" points="36.0822222 79.3834568 43.3012346 79.3834568 43.3012346 72.1676543 36.0822222 72.1676543"></polygon>
            <polygon id="Fill-306" fill="#D1FAFA" points="36.0822222 72.1676543 43.3012346 72.1676543 43.3012346 64.948642 36.0822222 64.948642"></polygon>
            <polygon id="Fill-307" fill="#D1FAFA" points="36.0822222 64.948642 43.3012346 64.948642 43.3012346 57.7328395 36.0822222 57.7328395"></polygon>
            <polygon id="Fill-308" fill="#F6FEFE" points="36.0822222 57.7328395 43.3012346 57.7328395 43.3012346 50.517037 36.0822222 50.517037"></polygon>
            <polygon id="Fill-309" fill="#F6FEFE" points="36.0822222 50.517037 43.3012346 50.517037 43.3012346 43.3012346 36.0822222 43.3012346"></polygon>
            <polygon id="Fill-310" fill="#BECBF5" points="28.8664198 108.249877 36.0822222 108.249877 36.0822222 101.034074 28.8664198 101.034074"></polygon>
            <polygon id="Fill-311" fill="#D1FAFA" points="28.8664198 101.034074 36.0822222 101.034074 36.0822222 93.8150617 28.8664198 93.8150617"></polygon>
            <polygon id="Fill-312" fill="#D1FAFA" points="28.8664198 93.8150617 36.0822222 93.8150617 36.0822222 86.5992593 28.8664198 86.5992593"></polygon>
            <polygon id="Fill-313" fill="#D1FAFA" points="28.8664198 86.5992593 36.0822222 86.5992593 36.0822222 79.3834568 28.8664198 79.3834568"></polygon>
            <polygon id="Fill-314" fill="#BECBF5" points="28.8664198 79.3834568 36.0822222 79.3834568 36.0822222 72.1676543 28.8664198 72.1676543"></polygon>
            <polygon id="Fill-315" fill="#D1FAFA" points="28.8664198 72.1676543 36.0822222 72.1676543 36.0822222 64.948642 28.8664198 64.948642"></polygon>
            <polygon id="Fill-316" fill="#D1FAFA" points="28.8664198 64.948642 36.0822222 64.948642 36.0822222 57.7328395 28.8664198 57.7328395"></polygon>
            <polygon id="Fill-317" fill="#F6FEFE" points="28.8664198 57.7328395 36.0822222 57.7328395 36.0822222 50.517037 28.8664198 50.517037"></polygon>
            <polygon id="Fill-318" fill="#BECBF5" points="21.6506173 108.249877 28.8664198 108.249877 28.8664198 101.034074 21.6506173 101.034074"></polygon>
            <polygon id="Fill-319" fill="#D1FAFA" points="21.6506173 101.034074 28.8664198 101.034074 28.8664198 93.8150617 21.6506173 93.8150617"></polygon>
            <polygon id="Fill-320" fill="#D1FAFA" points="21.6506173 93.8150617 28.8664198 93.8150617 28.8664198 86.5992593 21.6506173 86.5992593"></polygon>
            <polygon id="Fill-321" fill="#D1FAFA" points="21.6506173 86.5992593 28.8664198 86.5992593 28.8664198 79.3834568 21.6506173 79.3834568"></polygon>
            <polygon id="Fill-322" fill="#D1FAFA" points="21.6506173 79.3834568 28.8664198 79.3834568 28.8664198 72.1676543 21.6506173 72.1676543"></polygon>
            <polygon id="Fill-323" fill="#D1FAFA" points="21.6506173 72.1676543 28.8664198 72.1676543 28.8664198 64.948642 21.6506173 64.948642"></polygon>
            <polygon id="Fill-324" fill="#D1FAFA" points="21.6506173 64.948642 28.8664198 64.948642 28.8664198 57.7328395 21.6506173 57.7328395"></polygon>
            <polygon id="Fill-325" fill="#F6FEFE" points="21.6506173 57.7328395 28.8664198 57.7328395 28.8664198 50.517037 21.6506173 50.517037"></polygon>
            <polygon id="Fill-326" fill="#BECBF5" points="14.4316049 108.249877 21.6502963 108.249877 21.6502963 101.034074 14.4316049 101.034074"></polygon>
            <polygon id="Fill-327" fill="#D1FAFA" points="14.4316049 101.034074 21.6506173 101.034074 21.6506173 93.8150617 14.4316049 93.8150617"></polygon>
            <polygon id="Fill-328" fill="#D1FAFA" points="14.4316049 93.8150617 21.6506173 93.8150617 21.6506173 86.5992593 14.4316049 86.5992593"></polygon>
            <polygon id="Fill-329" fill="#BECBF5" points="14.4316049 86.5992593 21.6506173 86.5992593 21.6506173 79.3834568 14.4316049 79.3834568"></polygon>
            <polygon id="Fill-330" fill="#D1FAFA" points="14.4316049 79.3834568 21.6506173 79.3834568 21.6506173 72.1676543 14.4316049 72.1676543"></polygon>
            <polygon id="Fill-331" fill="#D1FAFA" points="14.4316049 72.1676543 21.6506173 72.1676543 21.6506173 64.948642 14.4316049 64.948642"></polygon>
            <polygon id="Fill-332" fill="#D1FAFA" points="14.4316049 64.948642 21.6506173 64.948642 21.6506173 57.7328395 14.4316049 57.7328395"></polygon>
            <polygon id="Fill-333" fill="#F6FEFE" points="14.4316049 57.7328395 21.6506173 57.7328395 21.6506173 50.517037 14.4316049 50.517037"></polygon>
            <polygon id="Fill-334" fill="#D1FAFA" points="7.21580247 101.034074 14.4316049 101.034074 14.4316049 93.8150617 7.21580247 93.8150617"></polygon>
            <polygon id="Fill-335" fill="#D1FAFA" points="7.21580247 93.8150617 14.4316049 93.8150617 14.4316049 86.5992593 7.21580247 86.5992593"></polygon>
            <polygon id="Fill-336" fill="#F6FEFE" points="7.21580247 86.5992593 14.4316049 86.5992593 14.4316049 79.3834568 7.21580247 79.3834568"></polygon>
            <polygon id="Fill-337" fill="#D1FAFA" points="7.21580247 79.3834568 14.4316049 79.3834568 14.4316049 72.1676543 7.21580247 72.1676543"></polygon>
            <polygon id="Fill-338" fill="#D1FAFA" points="7.21580247 72.1676543 14.4316049 72.1676543 14.4316049 64.948642 7.21580247 64.948642"></polygon>
            <polygon id="Fill-339" fill="#F6FEFE" points="7.21580247 64.948642 14.4316049 64.948642 14.4316049 57.7328395 7.21580247 57.7328395"></polygon>
            <polygon id="Fill-340" fill="#F6FEFE" points="7.21580247 57.7328395 14.4316049 57.7328395 14.4316049 50.517037 7.21580247 50.517037"></polygon>
            <polygon id="Fill-341" fill="#F6FEFE" points="0 79.3834568 7.21580247 79.3834568 7.21580247 72.1676543 0 72.1676543"></polygon>
            <polygon id="Fill-342" fill="#F6FEFE" points="0 72.1676543 7.21580247 72.1676543 7.21580247 64.948642 0 64.948642"></polygon>
        </g>
    </g>
</svg>