<?xml version="1.0" encoding="UTF-8"?>
<svg width="74px" height="75px" viewBox="0 0 74 75" version="1.1" xmlns="http://www.w3.org/2000/svg" xmlns:xlink="http://www.w3.org/1999/xlink">
    <title>Group 82</title>
    <g id="Page-1" stroke="none" stroke-width="1" fill="none" fill-rule="evenodd">
        <g id="Group-82">
            <polygon id="Fill-1" fill="#000000" points="66.831 47.2543 73.582 47.2543 73.582 40.5033 66.831 40.5033"></polygon>
            <polygon id="Fill-2" fill="#000000" points="66.831 40.5033 73.582 40.5033 73.582 33.7533 66.831 33.7533"></polygon>
            <polygon id="Fill-3" fill="#000000" points="66.831 33.7533 73.582 33.7533 73.582 27.0023 66.831 27.0023"></polygon>
            <polygon id="Fill-4" fill="#000000" points="60.082 54.0053 66.832 54.0053 66.832 47.2543 60.082 47.2543"></polygon>
            <polygon id="Fill-5" fill="#FFBF00" points="60.082 47.2543 66.832 47.2543 66.832 40.5043 60.082 40.5043"></polygon>
            <polygon id="Fill-6" fill="#FFBF00" points="60.082 40.5043 66.832 40.5043 66.832 33.7543 60.082 33.7543"></polygon>
            <polygon id="Fill-7" fill="#FFBF00" points="60.082 33.7533 66.832 33.7533 66.832 27.0023 60.082 27.0023"></polygon>
            <polygon id="Fill-8" fill="#000000" points="60.082 27.0023 66.832 27.0023 66.832 20.2523 60.082 20.2523"></polygon>
            <polygon id="Fill-9" fill="#000000" points="53.33 60.7563 60.081 60.7563 60.081 54.0063 53.33 54.0063"></polygon>
            <polygon id="Fill-10" fill="#FFBF00" points="53.33 54.0053 60.081 54.0053 60.081 47.2543 53.33 47.2543"></polygon>
            <polygon id="Fill-11" fill="#FFBF00" points="53.33 47.2543 60.081 47.2543 60.081 40.5043 53.33 40.5043"></polygon>
            <polygon id="Fill-12" fill="#D48200" points="53.33 40.5043 60.081 40.5043 60.081 33.7543 53.33 33.7543"></polygon>
            <polygon id="Fill-13" fill="#FFBF00" points="53.33 33.7533 60.081 33.7533 60.081 27.0023 53.33 27.0023"></polygon>
            <polygon id="Fill-14" fill="#FFBF00" points="53.33 27.0023 60.081 27.0023 60.081 20.2523 53.33 20.2523"></polygon>
            <polygon id="Fill-15" fill="#000000" points="53.33 20.2523 60.081 20.2523 60.081 13.5023 53.33 13.5023"></polygon>
            <polygon id="Fill-16" fill="#000000" points="46.58 67.5073 53.33 67.5073 53.33 60.7563 46.58 60.7563"></polygon>
            <polygon id="Fill-17" fill="#FFBF00" points="46.58 60.7563 53.33 60.7563 53.33 54.0063 46.58 54.0063"></polygon>
            <polygon id="Fill-18" fill="#FFBF00" points="46.58 54.0053 53.33 54.0053 53.33 47.2543 46.58 47.2543"></polygon>
            <polygon id="Fill-19" fill="#FFFFFF" points="46.58 47.2543 53.33 47.2543 53.33 40.5043 46.58 40.5043"></polygon>
            <polygon id="Fill-20" fill="#FFBF00" points="46.58 40.5043 53.33 40.5043 53.33 33.7543 46.58 33.7543"></polygon>
            <polygon id="Fill-21" fill="#D48200" points="46.58 33.7533 53.33 33.7533 53.33 27.0023 46.58 27.0023"></polygon>
            <polygon id="Fill-22" fill="#FFBF00" points="46.58 27.0023 53.33 27.0023 53.33 20.2523 46.58 20.2523"></polygon>
            <polygon id="Fill-23" fill="#FFBF00" points="46.58 20.2523 53.33 20.2523 53.33 13.5023 46.58 13.5023"></polygon>
            <polygon id="Fill-24" fill="#000000" points="46.58 13.5013 53.33 13.5013 53.33 6.7503 46.58 6.7503"></polygon>
            <polygon id="Fill-25" fill="#000000" points="40.504 74.2573 46.58 74.2573 46.58 67.5073 40.504 67.5073"></polygon>
            <polygon id="Fill-26" fill="#FFBF00" points="40.504 67.5073 46.58 67.5073 46.58 60.7563 40.504 60.7563"></polygon>
            <polygon id="Fill-27" fill="#FFBF00" points="40.504 60.7563 46.58 60.7563 46.58 54.0063 40.504 54.0063"></polygon>
            <polygon id="Fill-28" fill="#FFFFFF" points="40.504 54.0053 46.58 54.0053 46.58 47.2543 40.504 47.2543"></polygon>
            <polygon id="Fill-29" fill="#FFBF00" points="40.504 47.2543 46.58 47.2543 46.58 40.5043 40.504 40.5043"></polygon>
            <polygon id="Fill-30" fill="#FFBF00" points="40.504 40.5043 46.58 40.5043 46.58 33.7543 40.504 33.7543"></polygon>
            <polygon id="Fill-31" fill="#FFBF00" points="40.504 33.7533 46.58 33.7533 46.58 27.0023 40.504 27.0023"></polygon>
            <polygon id="Fill-32" fill="#D48200" points="40.504 27.0023 46.58 27.0023 46.58 20.2523 40.504 20.2523"></polygon>
            <polygon id="Fill-33" fill="#FFBF00" points="40.504 20.2523 46.58 20.2523 46.58 13.5023 40.504 13.5023"></polygon>
            <polygon id="Fill-34" fill="#FFBF00" points="40.504 13.5013 46.58 13.5013 46.58 6.7503 40.504 6.7503"></polygon>
            <polygon id="Fill-35" fill="#000000" points="40.504 6.7503 46.58 6.7503 46.58 0.0003 40.504 0.0003"></polygon>
            <polygon id="Fill-36" fill="#000000" points="33.754 74.2573 40.504 74.2573 40.504 67.5073 33.754 67.5073"></polygon>
            <polygon id="Fill-37" fill="#FFBF00" points="33.754 67.5073 40.504 67.5073 40.504 60.7563 33.754 60.7563"></polygon>
            <polygon id="Fill-38" fill="#FFFFFF" points="33.754 60.7563 40.504 60.7563 40.504 54.0063 33.754 54.0063"></polygon>
            <polygon id="Fill-39" fill="#FFBF00" points="33.754 54.0053 40.504 54.0053 40.504 47.2543 33.754 47.2543"></polygon>
            <polygon id="Fill-40" fill="#FFBF00" points="33.754 47.2543 40.504 47.2543 40.504 40.5043 33.754 40.5043"></polygon>
            <polygon id="Fill-41" fill="#D48200" points="33.754 40.5043 40.504 40.5043 40.504 33.7543 33.754 33.7543"></polygon>
            <polygon id="Fill-42" fill="#FFBF00" points="33.754 33.7533 40.504 33.7533 40.504 27.0023 33.754 27.0023"></polygon>
            <polygon id="Fill-43" fill="#D48200" points="33.754 27.0023 40.504 27.0023 40.504 20.2523 33.754 20.2523"></polygon>
            <polygon id="Fill-44" fill="#D48200" points="33.754 20.2523 40.504 20.2523 40.504 13.5023 33.754 13.5023"></polygon>
            <polygon id="Fill-45" fill="#FFBF00" points="33.754 13.5013 40.504 13.5013 40.504 6.7503 33.754 6.7503"></polygon>
            <polygon id="Fill-46" fill="#000000" points="33.754 6.7503 40.504 6.7503 40.504 0.0003 33.754 0.0003"></polygon>
            <polygon id="Fill-47" fill="#000000" points="27.003 74.2573 33.754 74.2573 33.754 67.5073 27.003 67.5073"></polygon>
            <polygon id="Fill-48" fill="#FFBF00" points="27.003 67.5073 33.753 67.5073 33.753 60.7563 27.003 60.7563"></polygon>
            <polygon id="Fill-49" fill="#FFBF00" points="27.003 60.7563 33.753 60.7563 33.753 54.0063 27.003 54.0063"></polygon>
            <polygon id="Fill-50" fill="#FFBF00" points="27.003 54.0053 33.753 54.0053 33.753 47.2543 27.003 47.2543"></polygon>
            <polygon id="Fill-51" fill="#D48200" points="27.003 47.2543 33.753 47.2543 33.753 40.5043 27.003 40.5043"></polygon>
            <polygon id="Fill-52" fill="#D48200" points="27.003 40.5043 33.753 40.5043 33.753 33.7543 27.003 33.7543"></polygon>
            <polygon id="Fill-53" fill="#D48200" points="27.003 33.7533 33.753 33.7533 33.753 27.0023 27.003 27.0023"></polygon>
            <polygon id="Fill-54" fill="#D48200" points="27.003 27.0023 33.753 27.0023 33.753 20.2523 27.003 20.2523"></polygon>
            <polygon id="Fill-55" fill="#FFFFFF" points="27.003 20.2523 33.753 20.2523 33.753 13.5023 27.003 13.5023"></polygon>
            <polygon id="Fill-56" fill="#FFBF00" points="27.003 13.5013 33.753 13.5013 33.753 6.7503 27.003 6.7503"></polygon>
            <polygon id="Fill-57" fill="#000000" points="27.003 6.7503 33.754 6.7503 33.754 0.0003 27.003 0.0003"></polygon>
            <polygon id="Fill-58" fill="#000000" points="20.252 67.5073 27.003 67.5073 27.003 60.7563 20.252 60.7563"></polygon>
            <polygon id="Fill-59" fill="#FFBF00" points="20.252 60.7563 27.003 60.7563 27.003 54.0063 20.252 54.0063"></polygon>
            <polygon id="Fill-60" fill="#FFBF00" points="20.252 54.0053 27.003 54.0053 27.003 47.2543 20.252 47.2543"></polygon>
            <polygon id="Fill-61" fill="#FFBF00" points="20.252 47.2543 27.003 47.2543 27.003 40.5043 20.252 40.5043"></polygon>
            <polygon id="Fill-62" fill="#D48200" points="20.252 40.5043 27.003 40.5043 27.003 33.7543 20.252 33.7543"></polygon>
            <polygon id="Fill-63" fill="#D48200" points="20.252 33.7533 27.003 33.7533 27.003 27.0023 20.252 27.0023"></polygon>
            <polygon id="Fill-64" fill="#FFFFFF" points="20.252 27.0023 27.003 27.0023 27.003 20.2523 20.252 20.2523"></polygon>
            <polygon id="Fill-65" fill="#FFBF00" points="20.252 20.2523 27.003 20.2523 27.003 13.5023 20.252 13.5023"></polygon>
            <polygon id="Fill-66" fill="#000000" points="20.252 13.5013 27.003 13.5013 27.003 6.7503 20.252 6.7503"></polygon>
            <polygon id="Fill-67" fill="#000000" points="13.502 60.7563 20.252 60.7563 20.252 54.0063 13.502 54.0063"></polygon>
            <polygon id="Fill-68" fill="#FFBF00" points="13.502 54.0053 20.252 54.0053 20.252 47.2543 13.502 47.2543"></polygon>
            <polygon id="Fill-69" fill="#FFBF00" points="13.502 47.2543 20.252 47.2543 20.252 40.5043 13.502 40.5043"></polygon>
            <polygon id="Fill-70" fill="#D48200" points="13.502 40.5043 20.252 40.5043 20.252 33.7543 13.502 33.7543"></polygon>
            <polygon id="Fill-71" fill="#FFFFFF" points="13.502 33.7533 20.252 33.7533 20.252 27.0023 13.502 27.0023"></polygon>
            <polygon id="Fill-72" fill="#FFBF00" points="13.502 27.0023 20.252 27.0023 20.252 20.2523 13.502 20.2523"></polygon>
            <polygon id="Fill-73" fill="#000000" points="13.502 20.2523 20.252 20.2523 20.252 13.5023 13.502 13.5023"></polygon>
            <polygon id="Fill-74" fill="#000000" points="6.75 54.0053 13.501 54.0053 13.501 47.2543 6.75 47.2543"></polygon>
            <polygon id="Fill-75" fill="#FFBF00" points="6.75 47.2543 13.501 47.2543 13.501 40.5043 6.75 40.5043"></polygon>
            <polygon id="Fill-76" fill="#FFBF00" points="6.75 40.5043 13.501 40.5043 13.501 33.7543 6.75 33.7543"></polygon>
            <polygon id="Fill-77" fill="#FFBF00" points="6.75 33.7533 13.501 33.7533 13.501 27.0023 6.75 27.0023"></polygon>
            <polygon id="Fill-78" fill="#000000" points="6.75 27.0023 13.501 27.0023 13.501 20.2523 6.75 20.2523"></polygon>
            <polygon id="Fill-79" fill="#000000" points="0 47.2543 6.751 47.2543 6.751 40.5033 0 40.5033"></polygon>
            <polygon id="Fill-80" fill="#000000" points="0 40.5033 6.751 40.5033 6.751 33.7533 0 33.7533"></polygon>
            <polygon id="Fill-81" fill="#000000" points="0 33.7533 6.751 33.7533 6.751 27.0023 0 27.0023"></polygon>
        </g>
    </g>
</svg>