<?xml version="1.0" encoding="UTF-8"?>
<svg width="27px" height="75px" viewBox="0 0 27 75" version="1.1" xmlns="http://www.w3.org/2000/svg" xmlns:xlink="http://www.w3.org/1999/xlink">
    <title>Group 45</title>
    <g id="Page-1" stroke="none" stroke-width="1" fill="none" fill-rule="evenodd">
        <g id="Group-45">
            <polygon id="Fill-1" fill="#000000" points="19.577 74.2574 26.328 74.2574 26.328 67.5064 19.577 67.5064"></polygon>
            <polygon id="Fill-2" fill="#000000" points="19.577 67.5064 26.328 67.5064 26.328 60.7564 19.577 60.7564"></polygon>
            <polygon id="Fill-3" fill="#000000" points="19.577 60.7564 26.328 60.7564 26.328 54.0044 19.577 54.0044"></polygon>
            <polygon id="Fill-4" fill="#000000" points="19.577 54.0044 26.328 54.0044 26.328 47.2544 19.577 47.2544"></polygon>
            <polygon id="Fill-5" fill="#000000" points="19.577 47.2544 26.328 47.2544 26.328 40.5034 19.577 40.5034"></polygon>
            <polygon id="Fill-6" fill="#000000" points="19.577 40.5034 26.328 40.5034 26.328 33.7524 19.577 33.7524"></polygon>
            <polygon id="Fill-7" fill="#000000" points="19.577 33.7524 26.328 33.7524 26.328 27.0024 19.577 27.0024"></polygon>
            <polygon id="Fill-8" fill="#000000" points="19.577 27.0024 26.328 27.0024 26.328 20.2514 19.577 20.2514"></polygon>
            <polygon id="Fill-9" fill="#000000" points="19.577 20.2524 26.328 20.2524 26.328 13.5014 19.577 13.5014"></polygon>
            <polygon id="Fill-10" fill="#000000" points="19.577 13.5014 26.328 13.5014 26.328 6.7514 19.577 6.7514"></polygon>
            <polygon id="Fill-11" fill="#000000" points="19.577 6.7514 26.328 6.7514 26.328 0.0004 19.577 0.0004"></polygon>
            <polygon id="Fill-12" fill="#000000" points="12.827 74.2574 19.577 74.2574 19.577 67.5064 12.827 67.5064"></polygon>
            <polygon id="Fill-13" fill="#D48200" points="12.827 67.5064 19.577 67.5064 19.577 60.7564 12.827 60.7564"></polygon>
            <polygon id="Fill-14" fill="#D48200" points="12.827 60.7564 19.577 60.7564 19.577 54.0054 12.827 54.0054"></polygon>
            <polygon id="Fill-15" fill="#FFBF00" points="12.827 54.0054 19.577 54.0054 19.577 47.2554 12.827 47.2554"></polygon>
            <polygon id="Fill-16" fill="#FFBF00" points="12.827 47.2544 19.577 47.2544 19.577 40.5044 12.827 40.5044"></polygon>
            <polygon id="Fill-17" fill="#FFBF00" points="12.827 40.5044 19.577 40.5044 19.577 33.7534 12.827 33.7534"></polygon>
            <polygon id="Fill-18" fill="#FFFFFF" points="12.827 33.7534 19.577 33.7534 19.577 27.0034 12.827 27.0034"></polygon>
            <polygon id="Fill-19" fill="#FFFFFF" points="12.827 27.0024 19.577 27.0024 19.577 20.2524 12.827 20.2524"></polygon>
            <polygon id="Fill-20" fill="#FFBF00" points="12.827 20.2524 19.577 20.2524 19.577 13.5014 12.827 13.5014"></polygon>
            <polygon id="Fill-21" fill="#FFBF00" points="12.827 13.5014 19.577 13.5014 19.577 6.7514 12.827 6.7514"></polygon>
            <polygon id="Fill-22" fill="#000000" points="12.827 6.7514 19.577 6.7514 19.577 0.0004 12.827 0.0004"></polygon>
            <polygon id="Fill-23" fill="#000000" points="6.751 74.2574 12.827 74.2574 12.827 67.5064 6.751 67.5064"></polygon>
            <polygon id="Fill-24" fill="#D48200" points="6.75 67.5064 12.826 67.5064 12.826 60.7564 6.75 60.7564"></polygon>
            <polygon id="Fill-25" fill="#D48200" points="6.75 60.7564 12.826 60.7564 12.826 54.0054 6.75 54.0054"></polygon>
            <polygon id="Fill-26" fill="#FFBF00" points="6.75 54.0054 12.826 54.0054 12.826 47.2554 6.75 47.2554"></polygon>
            <polygon id="Fill-27" fill="#FFBF00" points="6.75 47.2544 12.826 47.2544 12.826 40.5044 6.75 40.5044"></polygon>
            <polygon id="Fill-28" fill="#FFBF00" points="6.75 40.5044 12.826 40.5044 12.826 33.7534 6.75 33.7534"></polygon>
            <polygon id="Fill-29" fill="#FFFFFF" points="6.75 33.7534 12.826 33.7534 12.826 27.0034 6.75 27.0034"></polygon>
            <polygon id="Fill-30" fill="#FFFFFF" points="6.75 27.0024 12.826 27.0024 12.826 20.2524 6.75 20.2524"></polygon>
            <polygon id="Fill-31" fill="#FFBF00" points="6.75 20.2524 12.826 20.2524 12.826 13.5014 6.75 13.5014"></polygon>
            <polygon id="Fill-32" fill="#FFBF00" points="6.75 13.5014 12.826 13.5014 12.826 6.7514 6.75 6.7514"></polygon>
            <polygon id="Fill-33" fill="#000000" points="6.751 6.7514 12.827 6.7514 12.827 0.0004 6.751 0.0004"></polygon>
            <polygon id="Fill-34" fill="#000000" points="0 74.2574 6.751 74.2574 6.751 67.5064 0 67.5064"></polygon>
            <polygon id="Fill-35" fill="#000000" points="0 67.5064 6.751 67.5064 6.751 60.7564 0 60.7564"></polygon>
            <polygon id="Fill-36" fill="#000000" points="0 60.7564 6.751 60.7564 6.751 54.0044 0 54.0044"></polygon>
            <polygon id="Fill-37" fill="#000000" points="0 54.0044 6.751 54.0044 6.751 47.2544 0 47.2544"></polygon>
            <polygon id="Fill-38" fill="#000000" points="0 47.2544 6.751 47.2544 6.751 40.5034 0 40.5034"></polygon>
            <polygon id="Fill-39" fill="#000000" points="0 40.5034 6.751 40.5034 6.751 33.7524 0 33.7524"></polygon>
            <polygon id="Fill-40" fill="#000000" points="0 33.7524 6.751 33.7524 6.751 27.0024 0 27.0024"></polygon>
            <polygon id="Fill-41" fill="#000000" points="0 27.0024 6.751 27.0024 6.751 20.2514 0 20.2514"></polygon>
            <polygon id="Fill-42" fill="#000000" points="0 20.2524 6.751 20.2524 6.751 13.5014 0 13.5014"></polygon>
            <polygon id="Fill-43" fill="#000000" points="0 13.5014 6.751 13.5014 6.751 6.7514 0 6.7514"></polygon>
            <polygon id="Fill-44" fill="#000000" points="0 6.7514 6.751 6.7514 6.751 0.0004 0 0.0004"></polygon>
        </g>
    </g>
</svg>