<?xml version="1.0" encoding="UTF-8"?>
<svg width="67px" height="75px" viewBox="0 0 67 75" version="1.1" xmlns="http://www.w3.org/2000/svg" xmlns:xlink="http://www.w3.org/1999/xlink">
    <title>Group 87</title>
    <g id="Page-1" stroke="none" stroke-width="1" fill="none" fill-rule="evenodd">
        <g id="Group-87">
            <polygon id="Fill-1" fill="#000000" points="60.756 54.0044 66.831 54.0044 66.831 47.2544 60.756 47.2544"></polygon>
            <polygon id="Fill-2" fill="#000000" points="60.756 47.2544 66.831 47.2544 66.831 40.5034 60.756 40.5034"></polygon>
            <polygon id="Fill-3" fill="#000000" points="60.756 40.5034 66.831 40.5034 66.831 33.7524 60.756 33.7524"></polygon>
            <polygon id="Fill-4" fill="#000000" points="60.756 33.7524 66.831 33.7524 66.831 27.0024 60.756 27.0024"></polygon>
            <polygon id="Fill-5" fill="#000000" points="60.756 27.0024 66.831 27.0024 66.831 20.2514 60.756 20.2514"></polygon>
            <polygon id="Fill-6" fill="#000000" points="54.005 60.7564 60.756 60.7564 60.756 54.0054 54.005 54.0054"></polygon>
            <polygon id="Fill-7" fill="#FFBF00" points="54.005 54.0054 60.756 54.0054 60.756 47.2554 54.005 47.2554"></polygon>
            <polygon id="Fill-8" fill="#FFBF00" points="54.005 47.2544 60.756 47.2544 60.756 40.5044 54.005 40.5044"></polygon>
            <polygon id="Fill-9" fill="#FFBF00" points="54.005 40.5044 60.756 40.5044 60.756 33.7534 54.005 33.7534"></polygon>
            <polygon id="Fill-10" fill="#FFBF00" points="54.005 33.7534 60.756 33.7534 60.756 27.0034 54.005 27.0034"></polygon>
            <polygon id="Fill-11" fill="#FFBF00" points="54.005 27.0024 60.756 27.0024 60.756 20.2524 54.005 20.2524"></polygon>
            <polygon id="Fill-12" fill="#000000" points="54.005 20.2524 60.756 20.2524 60.756 13.5014 54.005 13.5014"></polygon>
            <polygon id="Fill-13" fill="#000000" points="47.255 67.5064 54.005 67.5064 54.005 60.7564 47.255 60.7564"></polygon>
            <polygon id="Fill-14" fill="#FFBF00" points="47.255 60.7564 54.005 60.7564 54.005 54.0054 47.255 54.0054"></polygon>
            <polygon id="Fill-15" fill="#FFBF00" points="47.255 54.0054 54.005 54.0054 54.005 47.2554 47.255 47.2554"></polygon>
            <polygon id="Fill-16" fill="#FFFFFF" points="47.255 47.2544 54.005 47.2544 54.005 40.5044 47.255 40.5044"></polygon>
            <polygon id="Fill-17" fill="#FFBF00" points="47.255 40.5044 54.005 40.5044 54.005 33.7534 47.255 33.7534"></polygon>
            <polygon id="Fill-18" fill="#FFBF00" points="47.255 33.7534 54.005 33.7534 54.005 27.0034 47.255 27.0034"></polygon>
            <polygon id="Fill-19" fill="#D48200" points="47.255 27.0024 54.005 27.0024 54.005 20.2524 47.255 20.2524"></polygon>
            <polygon id="Fill-20" fill="#FFBF00" points="47.255 20.2524 54.005 20.2524 54.005 13.5014 47.255 13.5014"></polygon>
            <polygon id="Fill-21" fill="#000000" points="47.255 13.5014 54.005 13.5014 54.005 6.7514 47.255 6.7514"></polygon>
            <polygon id="Fill-22" fill="#000000" points="40.505 74.2574 47.255 74.2574 47.255 67.5064 40.505 67.5064"></polygon>
            <polygon id="Fill-23" fill="#FFBF00" points="40.505 67.5064 47.255 67.5064 47.255 60.7564 40.505 60.7564"></polygon>
            <polygon id="Fill-24" fill="#FFBF00" points="40.505 60.7564 47.255 60.7564 47.255 54.0054 40.505 54.0054"></polygon>
            <polygon id="Fill-25" fill="#FFFFFF" points="40.505 54.0054 47.255 54.0054 47.255 47.2554 40.505 47.2554"></polygon>
            <polygon id="Fill-26" fill="#FFBF00" points="40.505 47.2544 47.255 47.2544 47.255 40.5044 40.505 40.5044"></polygon>
            <polygon id="Fill-27" fill="#D48200" points="40.505 40.5044 47.255 40.5044 47.255 33.7534 40.505 33.7534"></polygon>
            <polygon id="Fill-28" fill="#FFBF00" points="40.505 33.7534 47.255 33.7534 47.255 27.0034 40.505 27.0034"></polygon>
            <polygon id="Fill-29" fill="#D48200" points="40.505 27.0024 47.255 27.0024 47.255 20.2524 40.505 20.2524"></polygon>
            <polygon id="Fill-30" fill="#D48200" points="40.505 20.2524 47.255 20.2524 47.255 13.5014 40.505 13.5014"></polygon>
            <polygon id="Fill-31" fill="#FFBF00" points="40.505 13.5014 47.255 13.5014 47.255 6.7514 40.505 6.7514"></polygon>
            <polygon id="Fill-32" fill="#000000" points="40.505 6.7514 47.255 6.7514 47.255 0.0004 40.505 0.0004"></polygon>
            <polygon id="Fill-33" fill="#000000" points="33.753 74.2574 40.505 74.2574 40.505 67.5064 33.753 67.5064"></polygon>
            <polygon id="Fill-34" fill="#FFBF00" points="33.753 67.5064 40.504 67.5064 40.504 60.7564 33.753 60.7564"></polygon>
            <polygon id="Fill-35" fill="#FFBF00" points="33.753 60.7564 40.504 60.7564 40.504 54.0054 33.753 54.0054"></polygon>
            <polygon id="Fill-36" fill="#FFBF00" points="33.753 54.0054 40.504 54.0054 40.504 47.2554 33.753 47.2554"></polygon>
            <polygon id="Fill-37" fill="#FFBF00" points="33.753 47.2544 40.504 47.2544 40.504 40.5044 33.753 40.5044"></polygon>
            <polygon id="Fill-38" fill="#FFBF00" points="33.753 40.5044 40.504 40.5044 40.504 33.7534 33.753 33.7534"></polygon>
            <polygon id="Fill-39" fill="#D48200" points="33.753 33.7534 40.504 33.7534 40.504 27.0034 33.753 27.0034"></polygon>
            <polygon id="Fill-40" fill="#D48200" points="33.753 27.0024 40.504 27.0024 40.504 20.2524 33.753 20.2524"></polygon>
            <polygon id="Fill-41" fill="#FFFFFF" points="33.753 20.2524 40.504 20.2524 40.504 13.5014 33.753 13.5014"></polygon>
            <polygon id="Fill-42" fill="#FFBF00" points="33.753 13.5014 40.504 13.5014 40.504 6.7514 33.753 6.7514"></polygon>
            <polygon id="Fill-43" fill="#000000" points="33.753 6.7514 40.505 6.7514 40.505 0.0004 33.753 0.0004"></polygon>
            <polygon id="Fill-44" fill="#000000" points="27.003 74.2574 33.753 74.2574 33.753 67.5064 27.003 67.5064"></polygon>
            <polygon id="Fill-45" fill="#000000" points="27.003 67.5064 33.753 67.5064 33.753 60.7564 27.003 60.7564"></polygon>
            <polygon id="Fill-46" fill="#FFBF00" points="27.003 60.7564 33.753 60.7564 33.753 54.0054 27.003 54.0054"></polygon>
            <polygon id="Fill-47" fill="#FFBF00" points="27.003 54.0054 33.753 54.0054 33.753 47.2554 27.003 47.2554"></polygon>
            <polygon id="Fill-48" fill="#D48200" points="27.003 47.2544 33.753 47.2544 33.753 40.5044 27.003 40.5044"></polygon>
            <polygon id="Fill-49" fill="#D48200" points="27.003 40.5044 33.753 40.5044 33.753 33.7534 27.003 33.7534"></polygon>
            <polygon id="Fill-50" fill="#D48200" points="27.003 33.7534 33.753 33.7534 33.753 27.0034 27.003 27.0034"></polygon>
            <polygon id="Fill-51" fill="#FFFFFF" points="27.003 27.0024 33.753 27.0024 33.753 20.2524 27.003 20.2524"></polygon>
            <polygon id="Fill-52" fill="#FFBF00" points="27.003 20.2524 33.753 20.2524 33.753 13.5014 27.003 13.5014"></polygon>
            <polygon id="Fill-53" fill="#000000" points="27.003 13.5014 33.753 13.5014 33.753 6.7514 27.003 6.7514"></polygon>
            <polygon id="Fill-54" fill="#000000" points="27.003 6.7514 33.753 6.7514 33.753 0.0004 27.003 0.0004"></polygon>
            <polygon id="Fill-55" fill="#000000" points="20.252 74.2574 27.003 74.2574 27.003 67.5064 20.252 67.5064"></polygon>
            <polygon id="Fill-56" fill="#FFBF00" points="20.253 67.5064 27.003 67.5064 27.003 60.7564 20.253 60.7564"></polygon>
            <polygon id="Fill-57" fill="#000000" points="20.253 60.7564 27.003 60.7564 27.003 54.0054 20.253 54.0054"></polygon>
            <polygon id="Fill-58" fill="#FFBF00" points="20.253 54.0054 27.003 54.0054 27.003 47.2554 20.253 47.2554"></polygon>
            <polygon id="Fill-59" fill="#FFBF00" points="20.253 47.2544 27.003 47.2544 27.003 40.5044 20.253 40.5044"></polygon>
            <polygon id="Fill-60" fill="#FFBF00" points="20.253 40.5044 27.003 40.5044 27.003 33.7534 20.253 33.7534"></polygon>
            <polygon id="Fill-61" fill="#FFBF00" points="20.253 33.7534 27.003 33.7534 27.003 27.0034 20.253 27.0034"></polygon>
            <polygon id="Fill-62" fill="#FFBF00" points="20.253 27.0024 27.003 27.0024 27.003 20.2524 20.253 20.2524"></polygon>
            <polygon id="Fill-63" fill="#000000" points="20.253 20.2524 27.003 20.2524 27.003 13.5014 20.253 13.5014"></polygon>
            <polygon id="Fill-64" fill="#FFBF00" points="20.253 13.5014 27.003 13.5014 27.003 6.7514 20.253 6.7514"></polygon>
            <polygon id="Fill-65" fill="#000000" points="20.252 6.7514 27.003 6.7514 27.003 0.0004 20.252 0.0004"></polygon>
            <polygon id="Fill-66" fill="#000000" points="13.501 67.5064 20.252 67.5064 20.252 60.7564 13.501 60.7564"></polygon>
            <polygon id="Fill-67" fill="#FFBF00" points="13.501 60.7564 20.252 60.7564 20.252 54.0054 13.501 54.0054"></polygon>
            <polygon id="Fill-68" fill="#000000" points="13.501 54.0054 20.252 54.0054 20.252 47.2554 13.501 47.2554"></polygon>
            <polygon id="Fill-69" fill="#000000" points="13.501 47.2544 20.252 47.2544 20.252 40.5044 13.501 40.5044"></polygon>
            <polygon id="Fill-70" fill="#000000" points="13.501 40.5044 20.252 40.5044 20.252 33.7534 13.501 33.7534"></polygon>
            <polygon id="Fill-71" fill="#000000" points="13.501 33.7534 20.252 33.7534 20.252 27.0034 13.501 27.0034"></polygon>
            <polygon id="Fill-72" fill="#000000" points="13.501 27.0024 20.252 27.0024 20.252 20.2524 13.501 20.2524"></polygon>
            <polygon id="Fill-73" fill="#FFBF00" points="13.501 20.2524 20.252 20.2524 20.252 13.5014 13.501 13.5014"></polygon>
            <polygon id="Fill-74" fill="#000000" points="13.501 13.5014 20.252 13.5014 20.252 6.7514 13.501 6.7514"></polygon>
            <polygon id="Fill-75" fill="#000000" points="6.751 60.7564 13.501 60.7564 13.501 54.0054 6.751 54.0054"></polygon>
            <polygon id="Fill-76" fill="#FFBF00" points="6.751 54.0054 13.501 54.0054 13.501 47.2554 6.751 47.2554"></polygon>
            <polygon id="Fill-77" fill="#FFBF00" points="6.751 47.2544 13.501 47.2544 13.501 40.5044 6.751 40.5044"></polygon>
            <polygon id="Fill-78" fill="#FFBF00" points="6.751 40.5044 13.501 40.5044 13.501 33.7534 6.751 33.7534"></polygon>
            <polygon id="Fill-79" fill="#FFFFFF" points="6.751 33.7534 13.501 33.7534 13.501 27.0034 6.751 27.0034"></polygon>
            <polygon id="Fill-80" fill="#FFFFFF" points="6.751 27.0024 13.501 27.0024 13.501 20.2524 6.751 20.2524"></polygon>
            <polygon id="Fill-81" fill="#000000" points="6.751 20.2524 13.501 20.2524 13.501 13.5014 6.751 13.5014"></polygon>
            <polygon id="Fill-82" fill="#000000" points="0 54.0044 6.751 54.0044 6.751 47.2544 0 47.2544"></polygon>
            <polygon id="Fill-83" fill="#000000" points="0 47.2544 6.751 47.2544 6.751 40.5034 0 40.5034"></polygon>
            <polygon id="Fill-84" fill="#000000" points="0 40.5034 6.751 40.5034 6.751 33.7524 0 33.7524"></polygon>
            <polygon id="Fill-85" fill="#000000" points="0 33.7524 6.751 33.7524 6.751 27.0024 0 27.0024"></polygon>
            <polygon id="Fill-86" fill="#000000" points="0 27.0024 6.751 27.0024 6.751 20.2514 0 20.2514"></polygon>
        </g>
    </g>
</svg>