<?xml version="1.0" encoding="UTF-8"?>
<svg width="67px" height="75px" viewBox="0 0 67 75" version="1.1" xmlns="http://www.w3.org/2000/svg" xmlns:xlink="http://www.w3.org/1999/xlink">
    <title>Group 87</title>
    <g id="Page-1" stroke="none" stroke-width="1" fill="none" fill-rule="evenodd">
        <g id="Group-87">
            <polygon id="Fill-1" fill="#000000" points="0 54.0044 6.076 54.0044 6.076 47.2544 0 47.2544"></polygon>
            <polygon id="Fill-2" fill="#000000" points="0 47.2544 6.076 47.2544 6.076 40.5034 0 40.5034"></polygon>
            <polygon id="Fill-3" fill="#000000" points="0 40.5034 6.076 40.5034 6.076 33.7524 0 33.7524"></polygon>
            <polygon id="Fill-4" fill="#000000" points="0 33.7524 6.076 33.7524 6.076 27.0024 0 27.0024"></polygon>
            <polygon id="Fill-5" fill="#000000" points="0 27.0024 6.076 27.0024 6.076 20.2514 0 20.2514"></polygon>
            <polygon id="Fill-6" fill="#000000" points="6.076 60.7564 12.826 60.7564 12.826 54.0054 6.076 54.0054"></polygon>
            <polygon id="Fill-7" fill="#FFBF00" points="6.076 54.0054 12.826 54.0054 12.826 47.2554 6.076 47.2554"></polygon>
            <polygon id="Fill-8" fill="#FFBF00" points="6.076 47.2544 12.826 47.2544 12.826 40.5044 6.076 40.5044"></polygon>
            <polygon id="Fill-9" fill="#FFBF00" points="6.076 40.5044 12.826 40.5044 12.826 33.7534 6.076 33.7534"></polygon>
            <polygon id="Fill-10" fill="#FFBF00" points="6.076 33.7534 12.826 33.7534 12.826 27.0034 6.076 27.0034"></polygon>
            <polygon id="Fill-11" fill="#FFBF00" points="6.076 27.0024 12.826 27.0024 12.826 20.2524 6.076 20.2524"></polygon>
            <polygon id="Fill-12" fill="#000000" points="6.076 20.2524 12.826 20.2524 12.826 13.5014 6.076 13.5014"></polygon>
            <polygon id="Fill-13" fill="#000000" points="12.826 67.5064 19.577 67.5064 19.577 60.7564 12.826 60.7564"></polygon>
            <polygon id="Fill-14" fill="#FFBF00" points="12.826 60.7564 19.577 60.7564 19.577 54.0054 12.826 54.0054"></polygon>
            <polygon id="Fill-15" fill="#FFBF00" points="12.826 54.0054 19.577 54.0054 19.577 47.2554 12.826 47.2554"></polygon>
            <polygon id="Fill-16" fill="#FFFFFF" points="12.826 47.2544 19.577 47.2544 19.577 40.5044 12.826 40.5044"></polygon>
            <polygon id="Fill-17" fill="#FFBF00" points="12.826 40.5044 19.577 40.5044 19.577 33.7534 12.826 33.7534"></polygon>
            <polygon id="Fill-18" fill="#FFBF00" points="12.826 33.7534 19.577 33.7534 19.577 27.0034 12.826 27.0034"></polygon>
            <polygon id="Fill-19" fill="#D48200" points="12.826 27.0024 19.577 27.0024 19.577 20.2524 12.826 20.2524"></polygon>
            <polygon id="Fill-20" fill="#FFBF00" points="12.826 20.2524 19.577 20.2524 19.577 13.5014 12.826 13.5014"></polygon>
            <polygon id="Fill-21" fill="#000000" points="12.826 13.5014 19.577 13.5014 19.577 6.7514 12.826 6.7514"></polygon>
            <polygon id="Fill-22" fill="#000000" points="19.577 74.2574 26.328 74.2574 26.328 67.5064 19.577 67.5064"></polygon>
            <polygon id="Fill-23" fill="#FFBF00" points="19.577 67.5064 26.327 67.5064 26.327 60.7564 19.577 60.7564"></polygon>
            <polygon id="Fill-24" fill="#FFBF00" points="19.577 60.7564 26.327 60.7564 26.327 54.0054 19.577 54.0054"></polygon>
            <polygon id="Fill-25" fill="#FFFFFF" points="19.577 54.0054 26.327 54.0054 26.327 47.2554 19.577 47.2554"></polygon>
            <polygon id="Fill-26" fill="#FFBF00" points="19.577 47.2544 26.327 47.2544 26.327 40.5044 19.577 40.5044"></polygon>
            <polygon id="Fill-27" fill="#D48200" points="19.577 40.5044 26.327 40.5044 26.327 33.7534 19.577 33.7534"></polygon>
            <polygon id="Fill-28" fill="#FFBF00" points="19.577 33.7534 26.327 33.7534 26.327 27.0034 19.577 27.0034"></polygon>
            <polygon id="Fill-29" fill="#D48200" points="19.577 27.0024 26.327 27.0024 26.327 20.2524 19.577 20.2524"></polygon>
            <polygon id="Fill-30" fill="#D48200" points="19.577 20.2524 26.327 20.2524 26.327 13.5014 19.577 13.5014"></polygon>
            <polygon id="Fill-31" fill="#FFBF00" points="19.577 13.5014 26.327 13.5014 26.327 6.7514 19.577 6.7514"></polygon>
            <polygon id="Fill-32" fill="#000000" points="19.577 6.7514 26.328 6.7514 26.328 0.0004 19.577 0.0004"></polygon>
            <polygon id="Fill-33" fill="#000000" points="26.328 74.2574 33.079 74.2574 33.079 67.5064 26.328 67.5064"></polygon>
            <polygon id="Fill-34" fill="#FFBF00" points="26.328 67.5064 33.079 67.5064 33.079 60.7564 26.328 60.7564"></polygon>
            <polygon id="Fill-35" fill="#FFBF00" points="26.328 60.7564 33.079 60.7564 33.079 54.0054 26.328 54.0054"></polygon>
            <polygon id="Fill-36" fill="#FFBF00" points="26.328 54.0054 33.079 54.0054 33.079 47.2554 26.328 47.2554"></polygon>
            <polygon id="Fill-37" fill="#FFBF00" points="26.328 47.2544 33.079 47.2544 33.079 40.5044 26.328 40.5044"></polygon>
            <polygon id="Fill-38" fill="#FFBF00" points="26.328 40.5044 33.079 40.5044 33.079 33.7534 26.328 33.7534"></polygon>
            <polygon id="Fill-39" fill="#D48200" points="26.328 33.7534 33.079 33.7534 33.079 27.0034 26.328 27.0034"></polygon>
            <polygon id="Fill-40" fill="#D48200" points="26.328 27.0024 33.079 27.0024 33.079 20.2524 26.328 20.2524"></polygon>
            <polygon id="Fill-41" fill="#FFFFFF" points="26.328 20.2524 33.079 20.2524 33.079 13.5014 26.328 13.5014"></polygon>
            <polygon id="Fill-42" fill="#FFBF00" points="26.328 13.5014 33.079 13.5014 33.079 6.7514 26.328 6.7514"></polygon>
            <polygon id="Fill-43" fill="#000000" points="26.328 6.7514 33.079 6.7514 33.079 0.0004 26.328 0.0004"></polygon>
            <polygon id="Fill-44" fill="#000000" points="33.079 74.2574 39.829 74.2574 39.829 67.5064 33.079 67.5064"></polygon>
            <polygon id="Fill-45" fill="#000000" points="33.079 67.5064 39.829 67.5064 39.829 60.7564 33.079 60.7564"></polygon>
            <polygon id="Fill-46" fill="#FFBF00" points="33.079 60.7564 39.829 60.7564 39.829 54.0054 33.079 54.0054"></polygon>
            <polygon id="Fill-47" fill="#FFBF00" points="33.079 54.0054 39.829 54.0054 39.829 47.2554 33.079 47.2554"></polygon>
            <polygon id="Fill-48" fill="#D48200" points="33.079 47.2544 39.829 47.2544 39.829 40.5044 33.079 40.5044"></polygon>
            <polygon id="Fill-49" fill="#D48200" points="33.079 40.5044 39.829 40.5044 39.829 33.7534 33.079 33.7534"></polygon>
            <polygon id="Fill-50" fill="#D48200" points="33.079 33.7534 39.829 33.7534 39.829 27.0034 33.079 27.0034"></polygon>
            <polygon id="Fill-51" fill="#FFFFFF" points="33.079 27.0024 39.829 27.0024 39.829 20.2524 33.079 20.2524"></polygon>
            <polygon id="Fill-52" fill="#FFBF00" points="33.079 20.2524 39.829 20.2524 39.829 13.5014 33.079 13.5014"></polygon>
            <polygon id="Fill-53" fill="#000000" points="33.079 13.5014 39.829 13.5014 39.829 6.7514 33.079 6.7514"></polygon>
            <polygon id="Fill-54" fill="#000000" points="33.079 6.7514 39.829 6.7514 39.829 0.0004 33.079 0.0004"></polygon>
            <polygon id="Fill-55" fill="#000000" points="39.829 74.2574 46.58 74.2574 46.58 67.5064 39.829 67.5064"></polygon>
            <polygon id="Fill-56" fill="#FFBF00" points="39.829 67.5064 46.58 67.5064 46.58 60.7564 39.829 60.7564"></polygon>
            <polygon id="Fill-57" fill="#000000" points="39.829 60.7564 46.58 60.7564 46.58 54.0054 39.829 54.0054"></polygon>
            <polygon id="Fill-58" fill="#FFBF00" points="39.829 54.0054 46.58 54.0054 46.58 47.2554 39.829 47.2554"></polygon>
            <polygon id="Fill-59" fill="#FFBF00" points="39.829 47.2544 46.58 47.2544 46.58 40.5044 39.829 40.5044"></polygon>
            <polygon id="Fill-60" fill="#FFBF00" points="39.829 40.5044 46.58 40.5044 46.58 33.7534 39.829 33.7534"></polygon>
            <polygon id="Fill-61" fill="#FFBF00" points="39.829 33.7534 46.58 33.7534 46.58 27.0034 39.829 27.0034"></polygon>
            <polygon id="Fill-62" fill="#FFBF00" points="39.829 27.0024 46.58 27.0024 46.58 20.2524 39.829 20.2524"></polygon>
            <polygon id="Fill-63" fill="#000000" points="39.829 20.2524 46.58 20.2524 46.58 13.5014 39.829 13.5014"></polygon>
            <polygon id="Fill-64" fill="#FFBF00" points="39.829 13.5014 46.58 13.5014 46.58 6.7514 39.829 6.7514"></polygon>
            <polygon id="Fill-65" fill="#000000" points="39.829 6.7514 46.58 6.7514 46.58 0.0004 39.829 0.0004"></polygon>
            <polygon id="Fill-66" fill="#000000" points="46.579 67.5064 53.33 67.5064 53.33 60.7564 46.579 60.7564"></polygon>
            <polygon id="Fill-67" fill="#FFBF00" points="46.579 60.7564 53.33 60.7564 53.33 54.0054 46.579 54.0054"></polygon>
            <polygon id="Fill-68" fill="#000000" points="46.579 54.0054 53.33 54.0054 53.33 47.2554 46.579 47.2554"></polygon>
            <polygon id="Fill-69" fill="#000000" points="46.579 47.2544 53.33 47.2544 53.33 40.5044 46.579 40.5044"></polygon>
            <polygon id="Fill-70" fill="#000000" points="46.579 40.5044 53.33 40.5044 53.33 33.7534 46.579 33.7534"></polygon>
            <polygon id="Fill-71" fill="#000000" points="46.579 33.7534 53.33 33.7534 53.33 27.0034 46.579 27.0034"></polygon>
            <polygon id="Fill-72" fill="#000000" points="46.579 27.0024 53.33 27.0024 53.33 20.2524 46.579 20.2524"></polygon>
            <polygon id="Fill-73" fill="#FFBF00" points="46.579 20.2524 53.33 20.2524 53.33 13.5014 46.579 13.5014"></polygon>
            <polygon id="Fill-74" fill="#000000" points="46.579 13.5014 53.33 13.5014 53.33 6.7514 46.579 6.7514"></polygon>
            <polygon id="Fill-75" fill="#000000" points="53.33 60.7564 60.08 60.7564 60.08 54.0054 53.33 54.0054"></polygon>
            <polygon id="Fill-76" fill="#FFBF00" points="53.33 54.0054 60.08 54.0054 60.08 47.2554 53.33 47.2554"></polygon>
            <polygon id="Fill-77" fill="#FFBF00" points="53.33 47.2544 60.08 47.2544 60.08 40.5044 53.33 40.5044"></polygon>
            <polygon id="Fill-78" fill="#FFBF00" points="53.33 40.5044 60.08 40.5044 60.08 33.7534 53.33 33.7534"></polygon>
            <polygon id="Fill-79" fill="#FFFFFF" points="53.33 33.7534 60.08 33.7534 60.08 27.0034 53.33 27.0034"></polygon>
            <polygon id="Fill-80" fill="#FFFFFF" points="53.33 27.0024 60.08 27.0024 60.08 20.2524 53.33 20.2524"></polygon>
            <polygon id="Fill-81" fill="#000000" points="53.33 20.2524 60.08 20.2524 60.08 13.5014 53.33 13.5014"></polygon>
            <polygon id="Fill-82" fill="#000000" points="60.08 54.0044 66.831 54.0044 66.831 47.2544 60.08 47.2544"></polygon>
            <polygon id="Fill-83" fill="#000000" points="60.08 47.2544 66.831 47.2544 66.831 40.5034 60.08 40.5034"></polygon>
            <polygon id="Fill-84" fill="#000000" points="60.08 40.5034 66.831 40.5034 66.831 33.7524 60.08 33.7524"></polygon>
            <polygon id="Fill-85" fill="#000000" points="60.08 33.7524 66.831 33.7524 66.831 27.0024 60.08 27.0024"></polygon>
            <polygon id="Fill-86" fill="#000000" points="60.08 27.0024 66.831 27.0024 66.831 20.2514 60.08 20.2514"></polygon>
        </g>
    </g>
</svg>